<svg xmlns="http://www.w3.org/2000/svg" width="1024" height="1024" viewBox="0 0 1024 1024">
<g>
<path d="M 524.69 757.05 C521.16,759.20 519.68,759.34 516.02,757.88 C509.93,755.45 507.57,749.67 510.42,744.15 C512.99,739.19 518.26,737.63 524.48,739.99 C530.79,742.39 530.92,753.25 524.69,757.05 ZM 416.00 738.50 C414.41,739.32 410.94,740.00 408.30,740.00 L 403.50 740.00 L 403.50 721.00 L 408.82 721.00 C415.38,721.00 417.78,722.22 419.54,726.45 C421.47,731.06 419.88,736.50 416.00,738.50 ZM 167.55 760.55 C165.44,762.65 164.16,763.00 158.55,763.00 C154.95,763.00 152.00,762.80 152.00,762.57 C152.00,762.33 152.42,761.03 152.93,759.68 C153.44,758.34 154.00,754.21 154.16,750.52 L 154.46 743.79 L 160.38 744.22 C167.69,744.75 170.00,747.01 170.00,753.66 C170.00,757.03 169.41,758.68 167.55,760.55 ZM 274.49 766.00 C273.76,766.00 272.37,766.30 271.41,766.67 C270.13,767.17 269.80,766.95 270.21,765.88 C270.52,765.08 270.42,760.84 269.99,756.46 C269.44,750.81 269.54,748.29 270.36,747.77 C270.98,747.36 273.84,747.02 276.69,747.02 C280.86,747.00 282.18,747.42 283.37,749.11 C284.94,751.37 284.57,753.80 282.38,755.59 C281.30,756.48 281.71,757.47 284.50,760.73 L 287.96 764.77 L 285.43 765.26 C283.39,765.65 282.27,764.98 279.78,761.87 C275.80,756.92 274.60,756.96 275.27,762.00 C275.67,764.92 275.45,766.00 274.49,766.00 ZM 190.16 765.25 C190.45,769.28 190.32,769.52 187.58,769.83 L 184.70 770.16 L 185.35 763.93 C185.71,760.51 186.00,756.20 186.00,754.35 C186.00,751.53 186.36,751.00 188.28,751.00 C190.33,751.00 190.52,751.39 190.17,754.99 C189.89,757.99 190.19,759.14 191.41,759.60 C195.24,761.07 197.84,754.17 194.25,752.08 C192.75,751.21 192.88,751.06 195.19,751.03 C196.87,751.01 198.48,751.84 199.44,753.22 C201.45,756.09 201.41,756.59 198.98,759.02 C196.74,761.26 197.30,763.35 201.30,767.75 L 203.35 770.00 L 200.27 770.00 C197.70,770.00 196.71,769.25 194.34,765.50 C192.78,763.03 191.13,761.00 190.67,761.00 C190.22,761.00 189.99,762.91 190.16,765.25 ZM 687.43 731.10 C683.85,732.51 683.45,732.02 682.29,724.68 C681.65,720.66 680.98,716.72 680.81,715.93 C680.61,715.00 681.50,714.39 683.36,714.17 C685.03,713.98 685.96,714.25 685.61,714.82 C684.65,716.38 686.13,722.00 687.50,722.00 C689.54,722.00 691.21,719.25 690.52,717.05 C690.16,715.92 689.22,715.00 688.43,715.00 C687.64,715.00 687.00,714.55 687.00,714.00 C687.00,712.59 692.35,712.75 693.80,714.20 C695.34,715.74 695.34,719.26 693.80,720.80 C692.87,721.73 693.33,722.75 695.87,725.37 C698.61,728.19 698.87,728.84 697.49,729.36 C695.56,730.11 693.21,728.99 690.58,726.09 C689.54,724.94 688.31,724.00 687.85,724.00 C686.55,724.00 686.84,728.78 688.18,729.61 C689.00,730.12 688.76,730.58 687.43,731.10 ZM 262.08 766.08 C259.78,768.37 258.26,769.00 255.00,769.00 C246.30,769.00 241.48,758.43 247.45,752.45 C248.80,751.10 250.47,750.00 251.15,750.00 C252.12,750.00 252.13,750.27 251.20,751.20 C250.54,751.86 250.00,754.91 250.00,757.98 C250.00,764.12 251.94,768.00 255.00,768.00 C260.59,768.00 261.87,754.28 256.60,750.77 C255.91,750.31 256.12,750.02 257.17,750.02 C264.51,749.95 267.72,760.44 262.08,766.08 ZM 221.42 770.36 C220.92,771.66 219.38,772.00 214.05,772.00 L 207.31 772.00 L 207.40 762.51 L 207.50 753.02 L 214.25 753.01 C220.50,753.00 221.00,753.16 221.00,755.15 C221.00,757.22 220.92,757.23 219.08,755.57 C216.43,753.18 212.59,753.87 212.17,756.82 C211.68,760.30 212.78,762.62 214.23,761.17 C216.06,759.34 217.00,759.79 217.00,762.50 C217.00,763.88 216.55,765.00 216.00,765.00 C215.45,765.00 215.00,764.55 215.00,764.00 C215.00,763.45 214.30,763.00 213.44,763.00 C212.25,763.00 211.95,763.89 212.19,766.75 C212.46,769.96 212.88,770.54 215.12,770.80 C216.60,770.98 218.48,770.38 219.42,769.44 C221.35,767.51 222.34,767.96 221.42,770.36 ZM 438.42 740.36 C438.07,741.27 436.84,741.92 435.64,741.82 C434.46,741.72 431.36,741.47 428.75,741.26 L 423.99 740.89 L 424.47 737.20 C424.73,735.16 425.21,730.91 425.54,727.75 L 426.14 722.00 L 430.32 722.01 C436.62,722.03 439.00,722.94 439.00,725.31 C439.00,727.22 438.90,727.25 437.74,725.66 C437.05,724.72 435.17,723.84 433.56,723.72 C431.00,723.53 430.55,723.91 429.94,726.77 C429.17,730.40 430.32,731.81 432.54,729.96 C433.77,728.95 434.00,729.28 434.00,732.07 C434.00,735.20 433.92,735.28 432.52,733.44 C431.24,731.76 430.90,731.70 430.01,733.00 C429.44,733.83 429.10,735.62 429.24,737.00 C429.44,738.92 430.15,739.57 432.31,739.82 C433.86,740.00 435.78,739.60 436.58,738.93 C438.37,737.44 439.27,738.14 438.42,740.36 ZM 515.24 755.84 C518.56,759.16 523.90,754.09 524.72,746.82 C525.57,739.29 520.56,737.56 516.29,743.90 C513.78,747.63 513.23,753.83 515.24,755.84 ZM 649.73 741.56 C649.60,741.67 648.57,742.04 647.44,742.38 C645.60,742.95 645.20,742.26 643.55,735.76 C642.53,731.77 641.29,727.97 640.78,727.32 C640.13,726.48 640.97,725.82 643.68,725.07 C645.78,724.49 648.46,724.01 649.63,724.01 C654.29,723.99 655.44,729.99 651.30,732.73 C649.14,734.15 649.11,734.10 649.68,730.61 C650.12,727.89 649.87,726.89 648.66,726.42 C644.85,724.96 644.89,726.20 648.98,738.43 C649.52,740.05 649.86,741.45 649.73,741.56 ZM 770.59 722.92 C770.54,723.70 769.88,724.54 769.14,724.79 C768.14,725.12 767.98,724.63 768.52,722.87 C769.58,719.44 771.91,715.28 771.96,716.75 C771.98,717.44 773.17,718.00 774.61,718.00 C776.57,718.00 777.06,717.61 776.61,716.42 C776.27,715.55 776.00,714.38 776.00,713.81 C776.00,713.25 775.33,713.05 774.50,713.36 C772.64,714.08 772.64,713.80 774.52,709.29 C775.42,707.15 776.40,706.03 776.91,706.57 C777.73,707.46 785.00,723.60 785.00,724.55 C785.00,724.80 783.71,725.00 782.12,725.00 C779.73,725.00 779.15,724.50 778.65,722.00 C778.12,719.35 777.64,719.00 774.53,719.00 C772.45,719.00 770.94,719.52 770.85,720.25 C770.76,720.94 770.65,722.14 770.59,722.92 ZM 373.78 744.44 C370.04,747.06 364.29,746.45 360.92,743.08 C354.38,736.54 359.50,726.00 369.21,726.00 C370.26,726.00 370.84,726.45 370.50,727.00 C370.16,727.55 368.87,728.00 367.64,728.00 C364.39,728.00 363.00,729.88 363.00,734.25 C363.00,742.94 368.84,747.09 374.25,742.25 C375.24,741.37 376.00,741.17 376.00,741.79 C376.00,742.39 375.00,743.59 373.78,744.44 ZM 830.36 725.25 C830.02,727.31 829.46,729.00 829.11,729.00 C828.77,729.00 826.69,725.63 824.49,721.51 C822.30,717.39 819.99,714.01 819.36,714.01 C818.74,714.00 818.02,712.62 817.78,710.93 C817.38,708.21 817.57,707.92 819.41,708.41 C820.56,708.72 821.83,708.98 822.24,708.99 C822.64,708.99 824.39,711.81 826.13,715.25 C828.81,720.54 829.41,721.19 830.07,719.50 L 830.86 717.50 L 830.92 719.50 C830.95,720.60 830.70,723.19 830.36,725.25 ZM 760.34 716.25 C760.18,725.40 760.15,725.50 757.59,725.82 L 755.00 726.13 L 755.00 707.00 L 760.50 707.00 ZM 466.44 737.87 C465.75,744.96 465.72,745.00 462.76,745.00 C460.33,745.00 459.91,744.68 460.49,743.25 C461.80,739.96 462.76,730.51 461.84,729.92 C459.78,728.61 462.27,726.00 465.58,726.00 C468.71,726.00 468.89,726.17 468.05,728.37 C467.55,729.68 466.83,733.95 466.44,737.87 ZM 479.48 745.97 C479.85,746.57 479.15,746.97 477.81,746.92 C474.39,746.80 472.89,745.98 473.74,744.66 C474.87,742.90 477.89,729.63 477.35,728.76 C476.67,727.66 481.23,727.85 483.00,729.00 C483.83,729.53 484.02,729.98 483.43,729.98 C482.15,730.00 478.57,744.50 479.48,745.97 ZM 399.79 738.54 C399.63,738.70 398.37,739.10 397.00,739.41 C394.75,739.93 394.20,739.38 391.54,733.99 C388.59,728.02 387.00,726.50 387.00,729.67 C387.00,730.58 386.75,731.09 386.45,730.79 C385.77,730.10 388.01,721.00 388.87,721.01 C389.22,721.01 390.57,722.92 391.89,725.26 C393.20,727.59 395.58,731.47 397.18,733.87 C398.78,736.27 399.96,738.37 399.79,738.54 ZM 852.62 734.25 C853.19,736.17 852.58,736.31 849.33,735.00 C847.71,734.34 847.30,733.56 847.73,731.91 C848.12,730.43 847.70,729.26 846.46,728.35 C845.45,727.61 845.15,727.00 845.81,727.00 C846.46,727.00 847.00,725.88 847.00,724.50 C847.00,721.66 845.84,721.29 843.98,723.52 C843.28,724.36 842.47,724.80 842.17,724.51 C841.59,723.93 848.95,716.00 850.07,716.00 C850.44,716.00 851.05,719.71 851.42,724.25 C851.80,728.79 852.34,733.29 852.62,734.25 ZM 158.52 761.02 C158.85,761.56 159.74,762.00 160.50,762.00 C164.82,762.00 167.04,748.16 163.07,746.04 C162.00,745.47 160.71,745.00 160.20,745.00 C159.14,745.00 157.60,759.55 158.52,761.02 ZM 495.22 750.44 C496.95,751.65 497.08,752.00 495.80,752.00 C494.89,752.00 492.77,750.84 491.08,749.41 C484.26,743.68 488.94,732.91 498.17,733.08 L 502.50 733.15 L 499.00 734.41 C494.83,735.91 493.03,738.99 493.01,744.69 C493.00,747.90 493.52,749.25 495.22,750.44 ZM 178.56 758.50 C178.05,763.72 177.37,767.95 177.06,767.88 C172.96,767.04 172.77,766.80 173.37,763.15 C173.71,761.14 173.98,757.14 173.99,754.25 C174.00,749.19 174.10,749.00 176.75,749.00 L 179.50 749.00 ZM 806.00 720.94 C806.00,723.17 805.66,725.00 805.24,725.00 C804.83,725.00 802.46,722.02 799.99,718.37 C797.52,714.72 794.71,710.83 793.75,709.72 C791.37,706.96 791.55,706.00 794.45,706.00 C796.22,706.00 797.71,707.19 799.78,710.25 C801.37,712.59 802.96,715.32 803.32,716.31 C803.69,717.31 804.44,717.85 804.99,717.50 C805.61,717.13 806.00,718.47 806.00,720.94 ZM 455.90 739.44 C454.75,741.40 453.66,743.00 453.50,743.00 C453.33,743.00 452.18,739.19 450.95,734.53 C449.72,729.87 448.33,726.30 447.86,726.59 C447.39,726.88 447.00,726.14 447.00,724.95 C447.00,723.39 447.44,722.95 448.58,723.39 C449.45,723.73 450.75,724.00 451.47,724.00 C452.23,724.00 453.39,726.41 454.23,729.75 C455.05,733.00 456.18,735.39 456.84,735.25 C458.42,734.91 458.32,735.34 455.90,739.44 ZM 298.40 762.40 C294.90,763.74 294.34,762.96 293.11,754.91 C292.43,750.46 291.63,746.19 291.33,745.41 C290.95,744.43 291.55,744.00 293.30,744.00 C295.64,744.00 295.90,744.50 297.07,751.25 C297.75,755.24 298.69,759.24 299.14,760.15 C299.70,761.28 299.47,761.99 298.40,762.40 ZM 740.42 722.16 C740.98,722.57 740.97,724.13 740.39,726.13 L 739.44 729.43 L 734.63 721.22 C731.98,716.70 729.32,712.70 728.72,712.33 C728.05,711.91 728.37,711.37 729.57,710.90 C731.98,709.95 735.56,709.78 734.69,710.64 C734.01,711.32 738.84,721.02 740.42,722.16 ZM 409.67 738.33 C410.65,739.32 411.15,739.17 413.17,737.35 C415.57,735.18 415.74,725.88 413.43,723.57 C410.00,720.14 409.00,721.56 409.00,729.83 C409.00,734.14 409.30,737.97 409.67,738.33 ZM 354.34 750.42 C351.60,751.48 350.35,751.03 349.00,748.50 C348.26,747.12 347.29,746.00 346.83,746.00 C346.37,746.00 346.00,745.35 346.00,744.56 C346.00,743.76 345.07,742.46 343.92,741.66 C341.77,740.15 341.47,734.95 343.50,734.37 C344.05,734.21 347.05,737.62 350.17,741.96 C354.59,748.09 355.51,749.97 354.34,750.42 ZM 312.28 758.39 C311.29,759.38 310.42,759.12 307.77,757.03 C304.57,754.51 302.60,749.75 303.41,746.49 C304.19,743.41 307.42,740.00 309.57,740.00 C310.96,740.00 310.94,740.20 309.46,741.68 C307.25,743.89 308.00,751.16 310.84,754.99 C311.97,756.52 312.62,758.05 312.28,758.39 ZM 320.28 756.25 C319.40,757.21 318.07,758.00 317.32,758.00 C316.24,758.00 316.29,757.48 317.59,755.50 C319.83,752.09 318.70,744.61 315.47,741.37 L 313.09 739.00 L 315.32 739.00 C322.92,739.00 326.04,749.88 320.28,756.25 ZM 236.01 764.50 C236.38,770.25 236.29,770.51 233.95,770.79 C231.51,771.07 231.50,771.03 231.33,761.54 C231.17,752.37 231.25,752.00 233.33,752.00 C235.10,752.00 235.51,752.60 235.56,755.25 C235.59,757.04 235.79,761.20 236.01,764.50 ZM 617.77 752.37 C617.63,752.40 617.50,752.44 617.38,752.47 C616.47,752.72 615.87,752.88 615.32,752.78 C614.19,752.59 613.26,751.31 610.25,747.50 C606.42,742.66 604.56,737.00 606.79,737.00 C607.23,737.00 609.26,739.20 611.31,741.88 C613.36,744.56 616.16,747.88 617.53,749.26 L 620.03 751.76 ZM 670.36 726.91 L 675.94 733.82 L 672.97 734.86 C670.36,735.77 670.00,735.67 670.00,734.00 C670.00,732.95 669.39,731.74 668.65,731.30 C667.90,730.86 666.74,729.45 666.07,728.17 C665.29,726.69 664.29,726.06 663.31,726.43 C662.21,726.86 661.95,726.57 662.39,725.43 C662.72,724.55 663.00,722.97 663.00,721.92 C663.00,718.67 664.56,719.73 670.36,726.91 ZM 585.49 759.75 L 588.11 762.00 L 585.81 761.98 C582.77,761.95 579.36,759.18 578.06,755.70 C576.78,752.29 578.77,746.73 581.85,745.08 C584.89,743.45 585.21,743.75 583.39,746.52 C581.02,750.15 582.08,756.81 585.49,759.75 ZM 636.00 741.87 C636.00,742.83 635.39,744.45 634.65,745.46 C633.38,747.19 633.31,747.17 633.40,745.03 C633.48,743.19 632.68,742.51 629.22,741.47 C626.86,740.77 624.28,739.64 623.47,738.97 C621.64,737.46 621.56,733.61 623.33,732.14 C624.36,731.28 624.64,731.53 624.58,733.26 C624.52,735.04 625.42,735.79 629.01,736.99 C634.86,738.94 636.00,739.74 636.00,741.87 ZM 274.00 752.00 C274.00,755.67 274.25,756.10 276.15,755.82 C277.33,755.64 278.79,754.71 279.39,753.75 C280.81,751.49 279.14,748.63 276.15,748.18 C274.25,747.90 274.00,748.33 274.00,752.00 ZM 595.50 756.14 C595.50,758.49 594.93,759.48 593.20,760.12 C591.85,760.62 591.13,760.60 591.46,760.07 C591.76,759.57 591.59,758.04 591.06,756.67 C590.33,754.73 590.46,754.04 591.64,753.59 C594.61,752.45 595.50,753.04 595.50,756.14 ZM 434.31 718.91 C433.52,718.12 432.63,718.13 431.11,718.94 C428.75,720.20 428.52,719.77 430.04,716.93 C431.48,714.23 434.46,714.52 435.82,717.50 C437.00,720.09 436.22,720.82 434.31,718.91 ZM 256.74 743.40 C257.10,743.76 256.40,745.04 255.19,746.25 L 253.00 748.44 L 253.00 746.19 C253.00,743.97 255.47,742.13 256.74,743.40 ZM 593.36 745.50 C594.08,747.38 593.07,747.37 590.56,745.47 C588.65,744.03 588.65,744.00 590.70,744.00 C591.85,744.00 593.05,744.67 593.36,745.50 ZM 506.22 735.82 C507.06,736.66 507.09,737.31 506.33,738.07 C505.58,738.82 505.07,738.64 504.61,737.42 C504.25,736.48 504.20,735.47 504.49,735.17 C504.79,734.88 505.57,735.17 506.22,735.82 ZM 228.92 752.28 C228.69,752.44 227.71,753.17 226.75,753.91 C225.25,755.05 225.00,755.01 225.00,753.62 C225.00,752.63 225.83,752.00 227.17,752.00 C228.36,752.00 229.15,752.13 228.92,752.28 ZM 242.00 753.50 C242.00,754.33 241.83,755.00 241.62,755.00 C241.41,755.00 240.68,754.33 240.00,753.50 C238.98,752.27 239.05,752.00 240.38,752.00 C241.27,752.00 242.00,752.67 242.00,753.50 ZM 627.15 747.50 C627.15,748.02 626.67,748.61 626.08,748.81 C625.48,749.01 625.00,748.42 625.00,747.50 C625.00,746.58 625.48,745.99 626.08,746.19 C626.67,746.39 627.15,746.98 627.15,747.50 Z" fill="rgb(57,55,56)"/>
<path d="M 69.61 842.82 C65.51,849.32 63.13,852.11 61.05,852.83 C59.47,853.39 57.91,853.57 57.59,853.25 C57.26,852.93 57.00,841.81 57.00,828.54 L 57.00 804.42 L 51.75 801.31 C48.86,799.59 45.38,797.87 44.00,797.49 C40.81,796.59 24.00,787.83 24.00,787.07 C24.01,786.76 28.62,784.16 34.25,781.29 C45.05,775.81 51.29,770.78 78.87,745.33 C96.78,728.80 117.58,715.04 145.81,701.05 C158.76,694.63 165.99,692.29 178.73,690.40 C191.41,688.51 195.87,686.87 209.34,679.10 C230.99,666.60 247.40,661.56 277.86,658.02 C292.06,656.37 296.75,655.14 298.81,652.51 C300.15,650.81 301.90,642.55 305.29,621.84 C314.78,564.00 318.55,526.44 320.52,470.25 L 321.12 453.00 L 315.60 453.00 C307.42,453.00 290.35,454.95 283.50,456.66 C280.20,457.49 271.20,460.78 263.50,463.98 C255.80,467.18 247.98,470.11 246.12,470.50 L 242.74 471.22 L 243.41 485.36 C243.78,493.14 244.54,509.40 245.11,521.50 C245.68,533.60 246.51,565.33 246.97,592.00 C247.42,618.67 248.10,641.47 248.49,642.66 C248.98,644.18 248.56,645.44 247.09,646.91 C245.36,648.64 243.77,649.00 237.87,649.00 L 230.73 649.00 L 231.62 632.25 C233.06,604.86 232.55,544.32 230.67,519.74 C229.75,507.77 229.00,493.93 229.00,488.99 C229.00,482.30 228.67,480.00 227.71,480.00 C226.99,480.00 219.04,483.58 210.03,487.95 C201.03,492.33 193.31,495.69 192.89,495.43 C192.47,495.17 192.82,493.29 193.67,491.25 C194.74,488.68 195.04,485.96 194.62,482.42 L 194.02 477.31 L 199.28 476.14 C202.17,475.49 210.04,472.29 216.77,469.03 L 229.00 463.10 L 229.00 432.74 L 225.25 433.25 C223.19,433.53 216.03,436.06 209.35,438.88 C202.67,441.70 196.33,444.00 195.26,444.00 C192.16,444.00 190.00,440.78 190.00,436.17 C190.00,429.27 191.51,428.43 216.40,421.51 C221.30,420.15 225.57,418.76 225.90,418.43 C226.70,417.63 227.17,220.10 226.38,216.15 C225.89,213.70 224.60,212.40 220.15,209.89 C206.55,202.21 195.69,191.75 190.97,181.78 C188.29,176.12 187.13,171.00 188.53,171.00 C188.82,171.00 191.29,172.76 194.02,174.92 C209.23,186.94 227.35,193.00 248.11,193.00 C265.23,193.00 283.05,188.38 296.27,180.50 C303.15,176.40 303.25,176.42 311.07,184.66 C326.47,200.87 337.80,225.68 351.60,273.37 C365.10,320.06 370.17,364.85 370.22,438.00 C370.26,502.62 367.16,539.03 357.39,588.50 C347.18,640.15 341.01,658.57 325.84,682.62 C321.82,688.99 320.05,692.19 317.38,693.36 C314.76,694.50 311.29,693.69 304.01,692.00 C303.22,691.81 302.38,691.62 301.50,691.42 C288.35,688.39 263.31,687.16 250.50,688.91 C246.10,689.52 237.77,690.54 231.98,691.20 L 221.47 692.38 L 221.79 706.44 C221.97,714.17 222.30,721.06 222.53,721.75 C223.59,724.99 249.77,721.96 279.50,715.15 C319.17,706.07 344.30,702.18 370.00,701.13 C385.04,700.52 385.51,700.43 385.82,698.28 C386.13,696.07 386.00,696.05 370.82,695.78 L 355.50 695.50 L 362.50 692.68 C366.35,691.12 372.31,688.03 375.75,685.81 L 382.00 681.77 L 382.00 676.13 C382.00,667.75 384.55,647.43 388.93,621.00 C393.48,593.47 394.52,585.00 393.33,585.00 C392.03,585.00 382.89,591.34 379.50,594.61 C377.85,596.20 374.60,599.75 372.28,602.50 C368.32,607.20 368.07,607.34 368.03,604.88 C367.98,600.57 370.72,594.15 375.45,587.51 C379.76,581.48 389.31,572.00 391.08,572.00 C393.25,572.00 395.14,564.81 397.43,547.85 C398.79,537.76 408.02,464.70 417.93,385.50 C427.84,306.30 437.08,232.50 438.47,221.50 C439.85,210.50 440.99,201.01 440.99,200.41 C441.00,199.81 438.30,198.50 435.00,197.50 C426.66,194.97 417.97,189.08 415.12,184.00 C413.84,181.73 412.98,179.69 413.19,179.47 C413.41,179.26 416.49,180.01 420.04,181.15 C433.58,185.48 449.58,182.58 453.45,175.09 C454.33,173.39 455.29,172.00 455.59,172.00 C455.88,172.00 458.18,173.58 460.70,175.50 C463.23,177.43 467.12,179.49 469.37,180.10 C473.09,181.10 480.93,180.73 484.43,179.39 C485.61,178.94 485.90,183.97 486.29,211.18 C486.55,228.95 487.26,248.68 487.87,255.00 C488.49,261.33 491.67,304.98 494.95,352.00 C500.29,428.56 502.79,459.60 506.09,490.00 C506.66,495.23 507.52,508.73 508.01,520.00 C508.50,531.28 509.81,551.53 510.92,565.00 C513.87,600.81 515.84,632.63 516.62,656.77 L 517.30 678.04 L 519.90 678.66 C524.27,679.71 534.79,685.14 536.99,687.49 L 539.07 689.71 L 524.45 690.42 C511.46,691.05 508.99,691.47 502.29,694.15 C491.37,698.52 489.44,698.64 481.95,695.42 C476.33,693.01 473.88,692.60 462.83,692.21 C452.35,691.84 450.25,691.52 450.70,690.33 C451.69,687.77 460.13,682.06 466.23,679.84 L 472.18 677.67 L 471.63 674.08 C471.32,672.11 470.62,663.30 470.07,654.50 C469.51,645.70 468.38,630.85 467.54,621.50 C466.71,612.15 466.02,600.82 466.01,596.32 C466.00,588.54 465.87,588.04 463.25,586.20 C452.92,578.91 441.95,576.04 424.29,576.02 L 412.08 576.00 L 410.55 581.13 C408.43,588.28 406.33,603.76 403.99,629.50 C401.58,656.00 400.34,665.68 398.44,673.14 C397.65,676.25 397.00,679.04 397.00,679.35 C397.00,680.51 405.64,684.88 409.25,685.54 C411.97,686.03 413.00,686.73 413.00,688.05 C413.00,689.48 411.96,690.01 408.25,690.49 C405.64,690.83 402.42,691.34 401.09,691.61 C398.49,692.16 391.36,698.69 392.32,699.65 C392.64,699.97 397.16,699.73 402.36,699.12 C410.64,698.14 416.16,698.38 446.66,701.00 C465.82,702.65 487.12,704.93 494.00,706.05 C524.44,711.05 544.24,718.33 553.41,727.90 L 556.27 730.89 L 563.05 727.48 C587.68,715.07 629.70,701.82 664.48,695.48 C688.91,691.04 721.48,686.93 747.98,684.96 C755.94,684.36 762.63,683.70 762.85,683.48 C763.06,683.27 761.16,682.08 758.62,680.85 C756.08,679.61 754.00,678.35 754.00,678.05 C754.00,677.03 765.17,672.94 769.61,672.33 L 774.00 671.73 L 774.00 667.23 C774.00,659.39 772.07,648.72 755.59,565.50 C743.86,506.21 739.64,483.31 738.43,472.25 C737.76,466.20 737.65,466.00 734.88,466.00 C733.31,466.00 728.22,467.58 723.57,469.50 C718.92,471.42 714.20,473.00 713.08,473.00 C711.31,473.00 711.18,472.67 712.03,470.42 C713.12,467.55 712.59,466.00 710.51,466.00 C708.44,466.00 703.33,477.73 701.30,487.14 C698.84,498.55 698.87,545.99 701.36,578.00 C703.34,603.41 709.16,652.88 711.47,663.86 C712.31,667.86 713.00,672.74 713.00,674.70 L 713.00 678.26 L 709.25 677.63 C700.55,676.16 675.24,675.73 666.97,676.92 C650.69,679.26 627.27,688.73 615.07,697.91 C612.08,700.16 609.38,701.97 609.07,701.93 C608.76,701.89 605.18,697.38 601.13,691.91 C583.18,667.68 568.86,630.26 557.14,577.00 C544.91,521.39 539.99,474.35 540.01,413.02 C540.03,337.39 547.48,289.43 567.97,233.00 C576.80,208.71 591.58,182.75 599.18,178.22 C601.79,176.67 602.19,176.79 614.18,182.81 C635.80,193.66 653.61,196.67 678.50,193.68 C685.65,192.82 694.16,191.86 697.40,191.53 L 703.31 190.95 L 702.65 202.22 C702.29,208.43 700.87,224.52 699.50,238.00 C694.86,283.49 695.12,305.97 700.53,329.77 C700.99,331.77 701.32,331.90 703.27,330.89 C708.46,328.20 714.61,322.13 721.27,313.12 L 722.53 311.41 C733.52,296.56 735.86,293.38 736.50,293.70 C736.70,293.79 736.73,294.22 736.81,294.74 C736.98,295.89 735.63,301.04 733.81,306.17 C730.65,315.09 730.50,316.12 730.56,329.50 C730.60,337.20 731.18,347.55 731.85,352.50 C734.48,371.76 740.38,400.50 741.90,401.44 C742.28,401.67 750.89,400.08 761.04,397.91 C784.78,392.84 790.47,392.18 791.32,394.40 C791.67,395.31 792.87,404.03 793.99,413.77 C795.10,423.52 797.15,436.90 798.54,443.50 C799.93,450.10 802.03,460.11 803.21,465.75 C804.39,471.39 805.69,476.00 806.10,476.00 C807.96,476.00 813.59,456.62 817.87,435.50 C821.94,415.39 827.11,383.34 831.19,353.00 C834.18,330.74 834.43,295.88 831.67,286.00 C827.89,272.43 816.70,254.48 808.77,249.23 C805.97,247.37 803.10,246.49 798.88,246.18 C793.75,245.81 792.09,246.18 786.72,248.84 C783.30,250.54 776.73,255.21 772.11,259.21 C767.50,263.22 761.77,268.01 759.36,269.85 C755.52,272.79 755.00,272.96 755.00,271.25 C755.00,268.66 758.97,262.90 767.70,252.81 C776.21,242.99 792.52,222.39 808.32,201.50 C818.66,187.84 828.59,177.00 830.77,177.00 C831.24,177.00 832.34,178.46 833.20,180.25 C834.06,182.04 838.22,187.77 842.44,193.00 C856.95,210.97 869.44,240.43 877.64,276.00 C883.41,301.05 883.19,305.57 872.40,384.00 C865.49,434.29 856.72,488.23 847.61,536.50 C844.60,552.45 840.11,576.30 837.62,589.50 C835.13,602.70 831.68,621.83 829.95,632.00 C828.22,642.17 825.73,654.74 824.41,659.93 C823.10,665.11 822.13,669.41 822.26,669.48 C822.39,669.54 825.42,670.86 829.00,672.39 C832.58,673.93 836.96,675.83 838.75,676.61 L 842.00 678.03 L 842.00 674.24 C842.00,669.37 844.23,666.25 849.38,663.91 C855.28,661.24 860.49,661.52 867.50,664.89 C875.69,668.83 883.45,675.78 899.80,693.79 C916.29,711.94 921.31,716.54 935.66,726.60 C948.48,735.60 956.94,740.02 968.79,743.95 C976.40,746.48 980.70,747.35 996.85,749.65 L 1000.20 750.13 L 992.85 754.64 C981.29,761.75 977.99,765.66 978.01,772.20 C978.03,777.82 986.03,791.95 994.01,800.47 C999.51,806.34 1001.00,808.90 1001.00,812.45 C1001.00,814.76 1000.70,814.97 998.25,814.42 C968.66,807.73 912.42,779.21 884.00,756.48 C880.97,754.06 878.19,752.06 877.82,752.04 C877.44,752.02 876.99,753.24 876.82,754.75 C876.52,757.30 876.20,757.48 872.50,757.21 C870.30,757.05 861.30,755.62 852.50,754.03 C810.12,746.39 767.53,743.39 740.00,746.10 C734.22,746.67 722.53,747.28 714.00,747.45 C703.89,747.65 696.06,748.35 691.50,749.44 C687.65,750.37 677.53,752.68 669.01,754.57 C634.72,762.19 609.87,771.22 569.95,790.57 C538.19,805.97 523.99,811.20 513.50,811.38 C504.47,811.53 499.72,809.33 496.81,803.62 C494.88,799.84 494.76,798.44 495.33,785.88 L 495.95 772.25 L 483.23 769.14 C466.62,765.08 450.55,762.41 434.70,761.08 C402.15,758.34 377.69,760.68 320.50,772.01 C283.09,779.43 271.58,781.27 236.50,785.50 C221.86,787.27 200.43,787.90 187.60,786.95 C169.61,785.61 161.85,783.98 151.68,779.39 C147.18,777.36 141.46,775.51 138.97,775.27 C134.84,774.88 133.88,775.25 128.13,779.48 C118.94,786.24 89.82,815.09 82.01,825.15 C78.32,829.91 72.74,837.86 69.61,842.82 ZM 189.00 781.43 C194.58,782.07 226.64,781.10 236.50,780.01 C253.32,778.13 263.49,776.89 269.50,775.97 C296.71,771.81 307.71,769.71 331.50,764.14 C364.34,756.45 375.91,754.51 395.00,753.48 C424.98,751.88 478.41,760.02 519.34,772.43 C533.71,776.79 546.23,780.10 546.66,779.67 C546.97,779.36 547.92,771.14 550.02,750.50 C550.58,745.00 551.29,739.27 551.60,737.77 C552.05,735.52 551.47,734.41 548.33,731.53 C540.01,723.90 521.60,717.24 496.00,712.62 C449.39,704.21 407.12,702.22 368.00,706.58 C350.40,708.54 342.91,709.82 304.00,717.48 C267.31,724.71 254.73,727.20 242.05,728.04 C235.39,728.48 228.69,728.47 218.45,728.45 L 218.00 728.45 C187.81,728.40 182.54,727.68 160.00,720.51 C152.57,718.15 144.97,715.90 143.11,715.50 L 139.72 714.78 L 140.33 721.64 C140.67,725.41 141.25,737.45 141.62,748.38 L 142.29 768.26 L 148.40 771.02 C159.31,775.97 173.92,779.71 189.00,781.43 ZM 552.03 788.24 L 552.00 790.98 L 558.25 788.59 C561.69,787.27 569.22,783.95 575.00,781.21 C596.44,771.04 642.29,755.07 667.00,749.16 C698.03,741.73 719.14,739.61 762.00,739.60 C798.02,739.59 798.81,739.65 832.50,745.02 C857.85,749.07 864.47,750.00 867.78,750.00 L 870.67 750.00 L 871.85 737.75 C874.20,713.24 873.10,704.65 867.21,701.61 C861.59,698.70 847.16,696.20 822.50,693.85 C804.45,692.12 727.07,692.07 717.00,693.77 C712.88,694.46 706.12,695.53 702.00,696.13 C662.62,701.86 623.00,710.52 597.00,719.06 C584.10,723.30 561.38,733.57 559.35,736.08 C558.72,736.86 557.25,745.15 556.07,754.50 C554.90,763.85 553.52,774.65 553.00,778.50 C552.49,782.35 552.05,786.73 552.03,788.24 ZM 596.63 471.25 C596.89,473.19 596.89,474.40 597.50,475.09 C598.47,476.21 601.01,475.97 608.71,475.23 C609.68,475.14 610.72,475.04 611.85,474.93 C637.15,472.56 645.69,468.61 662.77,451.38 C669.51,444.57 675.59,439.01 676.27,439.03 C676.94,439.05 680.65,441.79 684.50,445.13 C698.14,456.93 703.96,458.83 716.00,455.41 C719.03,454.55 724.09,453.15 727.25,452.30 C732.04,451.01 733.00,450.39 733.00,448.55 C733.00,443.65 728.81,423.41 727.52,422.11 C726.34,420.92 725.10,421.10 719.01,423.36 C715.09,424.81 710.38,426.00 708.53,426.00 C705.35,426.00 705.14,425.77 704.51,421.75 C704.15,419.41 703.66,416.80 703.42,415.95 C703.10,414.78 704.79,413.82 710.25,412.07 C714.24,410.80 719.19,408.90 721.25,407.86 C724.69,406.11 725.00,405.62 725.00,401.73 C724.99,393.97 718.33,358.22 714.48,345.24 C713.74,342.75 713.32,341.03 712.29,339.85 C709.97,337.18 704.54,337.21 685.42,337.33 C684.48,337.34 683.51,337.35 682.50,337.35 L 655.50 337.51 L 644.50 341.24 C638.45,343.30 624.34,349.59 613.14,355.24 L 592.78 365.50 L 593.46 404.00 C594.08,439.32 595.00,458.85 596.63,471.25 ZM 242.43 412.25 C242.86,413.21 243.32,414.00 243.45,414.00 C243.58,414.00 250.17,412.69 258.09,411.08 C274.08,407.85 300.15,403.50 309.70,402.48 L 315.91 401.81 L 316.59 397.27 C317.58,390.68 316.10,337.90 314.47,321.50 C312.68,303.48 310.76,292.65 306.47,276.25 C303.66,265.49 290.47,223.13 289.70,222.37 C289.59,222.26 287.48,222.56 285.00,223.04 C275.53,224.87 263.81,224.15 251.66,221.00 C245.31,219.35 239.82,218.00 239.48,218.00 C238.68,218.00 239.66,338.14 240.80,379.50 C241.26,396.55 242.00,411.29 242.43,412.25 ZM 635.45 670.91 C635.70,671.32 639.33,671.06 643.53,670.34 C660.81,667.38 663.59,665.60 662.63,658.14 C662.10,654.05 661.03,632.82 656.97,545.50 C656.40,533.40 655.51,514.95 654.98,504.50 C654.45,494.05 654.01,484.78 654.01,483.91 C654.00,482.55 651.75,482.21 638.75,481.62 C630.36,481.24 619.00,480.28 613.50,479.49 C608.00,478.69 601.97,478.03 600.09,478.02 L 596.69 478.00 L 597.34 491.75 C598.83,523.38 606.96,575.86 616.03,612.50 C619.13,625.04 633.14,667.19 635.45,670.91 ZM 597.38 292.99 C596.82,299.69 596.95,301.00 598.19,301.00 C599.00,301.00 606.60,299.45 615.08,297.55 C636.15,292.83 658.61,289.06 669.46,288.41 C682.67,287.62 682.55,287.67 683.97,282.60 C684.91,279.23 684.94,277.35 684.08,274.74 C683.25,272.22 683.22,266.08 683.96,251.77 C685.41,223.91 683.67,213.39 677.20,210.86 C675.72,210.28 669.10,209.39 662.50,208.89 C651.89,208.08 637.49,206.27 627.00,204.44 L 623.50 203.82 L 617.80 215.16 C609.21,232.24 599.30,270.01 597.38,292.99 ZM 409.01 560.25 C409.00,561.52 413.62,561.09 423.26,558.92 C433.33,556.65 439.97,556.81 453.83,559.67 C457.86,560.50 461.31,561.03 461.49,560.84 C461.68,560.65 461.44,555.10 460.97,548.50 C460.50,541.90 459.63,528.40 459.03,518.50 C458.43,508.60 457.52,493.98 457.00,486.00 C456.49,478.02 455.59,463.85 455.01,454.50 C454.43,445.15 453.07,423.53 451.99,406.45 C450.92,389.38 448.92,365.98 447.55,354.45 C445.54,337.54 443.06,309.56 443.01,303.25 C443.00,302.56 442.55,302.00 442.00,302.00 C441.45,302.00 441.00,304.15 441.00,306.79 C441.00,309.42 440.09,321.23 438.99,333.04 C432.03,407.12 415.11,537.12 409.97,556.00 C409.44,557.92 409.01,559.84 409.01,560.25 ZM 981.50 802.28 C984.73,803.07 986.00,803.05 986.00,802.23 C986.00,801.81 983.07,796.74 979.48,790.98 C973.45,781.28 970.99,775.75 971.03,772.00 C971.06,769.15 974.81,762.21 978.59,758.04 C983.03,753.12 982.93,752.99 972.50,749.97 C950.38,743.55 940.26,738.25 921.67,723.36 C911.54,715.25 902.49,706.28 883.52,685.56 C871.08,671.97 866.65,668.98 859.05,669.05 C856.00,669.07 852.27,669.63 850.77,670.30 L 848.04 671.50 L 850.30 675.50 C852.34,679.12 856.44,682.58 869.50,691.71 C871.90,693.39 874.50,696.50 876.00,699.50 C878.82,705.13 879.18,712.59 877.58,732.12 L 876.71 742.74 L 885.11 749.41 C914.89,773.11 957.45,796.45 981.50,802.28 ZM 62.61 821.40 L 61.93 840.48 L 66.81 834.99 C69.49,831.97 75.30,825.00 79.71,819.50 C92.02,804.17 115.26,782.74 133.23,770.16 L 137.03 767.50 L 136.53 760.00 C136.25,755.88 135.75,744.06 135.40,733.75 C135.00,721.64 134.41,715.00 133.73,715.00 C131.99,715.00 118.14,722.85 108.50,729.29 C96.45,737.35 89.90,742.43 80.97,750.67 C76.86,754.46 69.19,761.23 63.92,765.72 C52.69,775.29 41.74,786.71 42.27,788.31 C42.47,788.92 45.58,791.02 49.16,792.96 C52.74,794.91 57.39,797.81 59.49,799.42 L 63.30 802.33 ZM 780.00 607.75 C780.00,610.09 780.36,612.00 780.80,612.00 C781.24,612.00 785.80,592.58 790.94,568.85 C800.11,526.50 800.27,525.52 799.66,516.10 C798.98,505.43 796.84,495.75 790.97,476.67 C788.80,469.61 786.48,460.90 785.82,457.31 L 784.62 450.79 L 780.65 451.32 C778.46,451.61 771.10,453.12 764.28,454.68 L 751.89 457.50 L 752.52 462.50 C754.24,475.97 760.09,506.49 773.43,571.50 C777.04,589.10 780.00,605.41 780.00,607.75 ZM 595.00 331.16 C595.00,339.75 595.36,344.00 596.09,344.00 C596.69,344.00 605.80,340.89 616.34,337.10 C646.65,326.18 661.66,322.16 678.34,320.50 L 685.19 319.82 L 684.63 316.66 C684.32,314.92 683.76,309.95 683.38,305.61 L 682.70 297.72 L 673.56 298.32 C658.02,299.34 620.68,308.26 603.03,315.17 L 595.00 318.31 ZM 243.00 443.58 C243.00,450.96 243.36,457.00 243.81,457.00 C244.26,457.00 251.57,454.78 260.06,452.06 C278.85,446.06 292.76,442.50 306.85,440.10 C316.30,438.49 317.46,438.07 317.11,436.39 C316.89,435.35 316.52,430.30 316.29,425.17 L 315.86 415.85 L 312.18 416.41 C310.16,416.71 304.67,417.45 300.00,418.05 C285.01,419.96 256.81,425.77 246.25,429.12 L 243.00 430.16 ZM 748.54 442.07 C749.35,443.38 754.51,442.41 765.24,438.93 C770.04,437.37 775.56,435.80 777.50,435.43 C779.44,435.07 781.23,434.44 781.48,434.03 C781.73,433.62 781.29,428.39 780.49,422.39 C779.69,416.40 779.03,410.66 779.02,409.64 C779.00,408.04 778.47,407.87 775.25,408.44 C768.40,409.65 746.52,415.05 745.22,415.86 C744.20,416.49 744.34,419.08 745.94,428.87 C747.03,435.58 748.21,441.52 748.54,442.07 Z" fill="rgb(146,3,66)"/>
<path d="M 740.42 722.16 C739.40,721.43 737.02,717.11 735.65,713.97 C736.03,714.76 736.49,715.63 737.01,716.51 L 739.88 721.44 L 740.94 718.65 C741.52,717.12 742.00,715.26 742.00,714.52 C742.00,713.77 742.51,713.00 743.13,712.79 C743.88,712.54 743.70,711.85 742.63,710.78 C740.34,708.48 740.57,708.00 744.01,708.00 C746.60,708.00 746.87,708.24 745.97,709.75 C745.40,710.71 743.70,715.54 742.19,720.47 L 739.45 729.44 L 739.44 729.43 L 740.39 726.13 C740.97,724.13 740.98,722.57 740.42,722.16 ZM 794.20 723.80 C795.13,724.73 794.63,724.99 791.95,724.97 C788.88,724.94 788.69,724.79 790.23,723.62 C791.19,722.89 791.73,722.06 791.43,721.77 C791.14,721.47 791.21,717.80 791.59,713.61 C791.85,710.67 792.04,708.86 792.33,707.75 C792.58,708.27 793.06,708.92 793.75,709.72 C794.71,710.83 797.52,714.72 799.99,718.37 C802.32,721.81 804.56,724.66 805.15,724.97 C805.14,724.99 805.12,725.00 805.11,724.99 C804.77,724.99 802.34,721.84 799.70,717.99 C797.05,714.15 794.47,711.00 793.95,711.00 C792.56,711.00 792.79,722.39 794.20,723.80 ZM 806.00 720.67 C805.97,718.37 805.58,717.14 804.99,717.50 C804.44,717.85 803.69,717.31 803.32,716.31 C803.00,715.42 801.68,713.13 800.27,710.97 C800.42,711.20 800.58,711.44 800.74,711.68 L 804.50 717.36 L 804.81 713.11 C804.98,710.77 804.59,708.21 803.94,707.43 C802.96,706.24 803.29,706.00 805.88,706.00 C808.79,706.00 810.20,707.42 808.04,708.17 C807.51,708.35 806.77,712.21 806.40,716.75 C806.28,718.17 806.14,719.50 806.00,720.67 ZM 386.01 739.51 C387.06,740.78 386.75,741.00 383.87,740.97 C381.02,740.94 380.74,740.75 382.09,739.72 C382.96,739.05 383.49,737.94 383.25,737.25 C383.02,736.56 383.32,736.00 383.92,736.00 C384.51,736.00 385.00,735.33 385.00,734.50 C385.00,733.57 385.94,733.00 387.50,733.00 C389.71,733.00 390.30,732.50 389.75,730.63 C390.28,731.52 390.88,732.64 391.54,733.99 C394.20,739.38 394.75,739.93 397.00,739.41 C398.37,739.10 399.63,738.70 399.79,738.54 C399.63,738.70 398.37,739.12 397.00,739.46 C395.02,739.96 394.29,739.61 393.50,737.79 C392.81,736.20 391.50,735.40 389.24,735.19 C385.57,734.83 383.94,737.02 386.01,739.51 ZM 664.00 737.00 C664.00,737.55 663.36,738.00 662.57,738.00 C660.91,738.00 659.36,734.05 660.65,733.13 C661.13,732.78 661.60,731.15 661.69,729.50 C661.85,726.56 662.40,723.48 663.00,721.65 C663.00,721.74 663.00,721.83 663.00,721.92 C663.00,722.97 662.72,724.55 662.39,725.43 C661.95,726.57 662.21,726.86 663.31,726.43 C663.39,726.40 663.46,726.38 663.54,726.37 C663.19,726.66 663.00,727.36 663.00,728.39 C663.00,730.28 663.40,730.78 664.55,730.34 C665.82,729.86 666.08,728.28 665.43,727.20 C665.66,727.47 665.87,727.79 666.07,728.17 C666.74,729.45 667.90,730.86 668.65,731.30 C668.81,731.39 668.96,731.52 669.10,731.68 C668.40,731.29 667.23,731.38 665.41,731.86 C662.66,732.60 660.62,736.00 662.93,736.00 C663.52,736.00 664.00,736.45 664.00,737.00 ZM 236.01 764.50 C235.79,761.20 235.59,757.04 235.56,755.25 C235.51,752.60 235.10,752.00 233.33,752.00 C231.63,752.00 231.27,752.25 231.28,757.33 C230.81,753.92 230.29,753.00 229.12,753.00 C228.59,753.00 227.95,753.17 227.37,753.43 C228.10,752.88 228.74,752.40 228.92,752.28 C229.15,752.13 228.36,752.00 227.17,752.00 C225.88,752.00 225.06,752.58 225.00,753.51 C225.00,753.41 225.00,753.31 225.00,753.20 C225.00,751.11 225.41,751.00 233.50,751.00 C241.59,751.00 242.00,751.11 242.00,753.20 C242.00,753.28 242.00,753.36 242.00,753.43 C241.96,752.64 241.24,752.00 240.38,752.00 C239.05,752.00 238.98,752.27 240.00,753.50 C240.07,753.58 240.14,753.67 240.21,753.75 C239.50,753.31 238.52,753.00 237.74,753.00 C236.05,753.00 235.90,753.81 236.09,761.75 L 236.31 770.50 L 234.45 770.72 C236.31,770.44 236.35,769.80 236.01,764.50 ZM 606.00 746.41 C606.00,748.32 606.41,748.71 608.00,748.29 C609.22,747.97 609.84,747.60 609.92,747.07 C610.03,747.21 610.14,747.36 610.25,747.50 C610.92,748.36 611.49,749.08 611.99,749.70 C611.12,748.94 610.28,749.06 608.21,749.78 C604.11,751.21 603.66,750.32 604.95,743.33 C605.32,741.32 605.65,739.48 605.83,738.38 C605.86,739.83 606.80,742.25 608.35,744.78 C606.80,743.44 606.00,743.99 606.00,746.41 ZM 818.03 726.53 C818.70,727.34 818.85,727.93 818.37,727.85 C817.89,727.77 816.29,727.52 814.81,727.29 C812.15,726.88 812.14,726.86 814.06,724.94 C815.13,723.87 816.00,721.65 816.00,720.00 C816.00,718.35 816.49,717.00 817.09,717.00 C817.80,717.00 817.94,718.38 817.49,721.03 C817.05,723.67 817.24,725.58 818.03,726.53 ZM 622.29 737.10 C622.08,736.48 622.00,735.77 622.00,734.94 C622.00,731.75 622.79,731.06 627.68,729.96 C630.76,729.27 631.22,729.44 632.06,731.66 C633.41,735.20 633.24,735.53 631.08,733.57 C629.01,731.70 625.16,731.80 624.58,733.53 C624.57,733.44 624.57,733.35 624.58,733.26 C624.64,731.53 624.36,731.28 623.33,732.14 C622.09,733.17 621.76,735.36 622.29,737.10 ZM 447.86 726.59 C448.20,726.38 449.03,728.21 449.93,731.01 C448.68,727.45 448.04,728.22 447.42,732.85 C447.05,735.68 446.30,738.00 445.76,738.00 C445.16,738.00 445.03,736.14 445.42,733.25 C446.09,728.40 446.52,725.76 447.02,724.44 C447.01,724.60 447.00,724.77 447.00,724.95 C447.00,726.14 447.39,726.88 447.86,726.59 ZM 627.15 747.50 C627.15,747.14 626.92,746.74 626.57,746.47 C627.13,746.38 627.85,746.36 628.75,746.39 C631.81,746.48 632.50,746.15 632.50,744.60 C632.50,743.29 631.29,742.28 628.61,741.35 C627.05,740.81 625.83,740.32 624.90,739.81 C626.07,740.38 627.69,741.02 629.22,741.47 C632.68,742.51 633.48,743.19 633.40,745.03 C633.31,747.17 633.38,747.19 634.65,745.46 C635.27,744.61 635.80,743.34 635.95,742.38 C636.03,744.15 635.55,746.13 634.54,746.97 C633.74,747.63 631.26,748.42 629.04,748.72 C627.47,748.93 626.47,748.99 625.85,748.85 C625.92,748.85 626.00,748.83 626.08,748.81 C626.67,748.61 627.15,748.02 627.15,747.50 ZM 259.95 750.55 C259.11,750.20 258.18,750.01 257.17,750.02 C256.12,750.02 255.91,750.31 256.60,750.77 C257.48,751.36 258.18,752.23 258.71,753.29 C257.12,750.34 252.57,750.07 251.04,752.93 C250.19,754.51 249.90,757.42 250.09,760.16 C250.03,759.47 250.00,758.74 250.00,757.98 C250.00,754.91 250.54,751.86 251.20,751.20 C252.13,750.27 252.12,750.00 251.15,750.00 C250.95,750.00 250.66,750.10 250.31,750.27 C253.62,748.42 257.16,748.85 259.95,750.55 ZM 178.56 758.50 L 177.63 768.00 L 173.66 768.00 C169.70,768.00 169.69,768.00 171.58,765.91 C172.98,764.37 173.57,761.90 173.84,756.41 C173.90,755.38 173.94,754.49 173.99,753.73 C173.99,753.89 173.99,754.07 173.99,754.25 C173.98,757.14 173.71,761.14 173.37,763.15 C172.77,766.80 172.96,767.04 177.06,767.88 C177.37,767.95 178.05,763.72 178.56,758.50 ZM 593.00 760.55 C591.41,761.42 589.74,761.89 588.09,761.98 L 585.55 759.80 C586.52,760.44 587.64,760.64 588.84,760.33 C590.75,759.83 591.11,759.19 590.77,756.90 C590.70,756.39 590.67,755.92 590.69,755.51 C590.77,755.84 590.89,756.22 591.06,756.67 C591.59,758.04 591.76,759.57 591.46,760.07 C591.13,760.60 591.85,760.62 593.20,760.12 C593.75,759.92 594.19,759.68 594.52,759.37 C594.14,759.81 593.64,760.19 593.00,760.55 ZM 583.38 746.54 L 583.39 746.52 C584.73,744.48 584.91,743.78 583.70,744.20 C585.48,743.39 587.49,743.06 589.52,743.44 C590.33,743.59 591.12,743.86 591.78,744.19 C591.44,744.07 591.07,744.00 590.70,744.00 C588.68,744.00 588.65,744.03 590.49,745.41 C589.71,745.16 588.61,745.00 587.48,745.00 C585.63,745.00 584.26,745.51 583.38,746.54 ZM 430.49 724.84 C430.35,725.29 430.27,725.92 430.19,726.75 C429.85,730.26 431.30,731.07 432.88,728.26 C434.33,725.67 435.02,727.11 434.34,731.31 C434.21,732.11 434.10,732.72 433.99,733.18 C434.00,732.86 434.00,732.49 434.00,732.07 C434.00,729.28 433.77,728.95 432.54,729.96 C430.32,731.81 429.17,730.40 429.94,726.77 C430.12,725.92 430.28,725.30 430.49,724.84 ZM 495.22 750.44 C495.19,750.42 495.16,750.40 495.14,750.38 C495.91,750.81 496.91,751.00 498.20,751.00 C499.74,751.00 501.00,751.45 501.00,752.00 C501.00,754.15 495.38,752.90 491.78,749.97 C493.32,751.13 495.02,752.00 495.80,752.00 C497.08,752.00 496.95,751.65 495.22,750.44 ZM 830.67 723.04 C830.84,721.60 830.94,720.23 830.92,719.50 L 830.86 717.50 L 830.07 719.50 C829.92,719.89 829.77,720.15 829.60,720.27 L 829.81 717.75 C829.98,715.69 830.59,714.00 831.17,714.00 C831.81,714.00 831.99,715.27 831.64,717.25 C831.39,718.63 831.00,720.97 830.67,723.04 ZM 345.94 744.17 C345.98,744.31 346.00,744.44 346.00,744.56 C346.00,745.35 346.37,746.00 346.83,746.00 C347.29,746.00 348.26,747.12 349.00,748.50 C347.98,746.61 347.14,746.18 345.34,746.63 C343.94,746.98 343.00,746.77 343.00,746.11 C343.00,745.50 343.67,745.00 344.50,745.00 C345.45,745.00 345.92,744.68 345.94,744.17 ZM 846.41 726.66 C846.23,726.87 846.03,727.00 845.81,727.00 C845.15,727.00 845.45,727.61 846.46,728.35 C847.70,729.26 848.12,730.43 847.73,731.91 C847.69,732.09 847.65,732.27 847.62,732.43 C847.57,732.12 847.54,731.78 847.54,731.41 C847.51,729.17 846.98,728.43 845.25,728.18 C844.01,728.00 843.00,727.41 843.00,726.86 C843.00,726.31 843.90,726.15 845.00,726.50 C845.65,726.71 846.11,726.78 846.41,726.66 ZM 507.00 738.56 C507.00,741.88 505.36,741.66 504.70,738.25 C504.63,737.85 504.57,737.49 504.52,737.17 C504.55,737.25 504.58,737.34 504.61,737.42 C505.07,738.64 505.58,738.82 506.33,738.07 C506.62,737.78 506.79,737.51 506.85,737.23 C506.95,737.65 507.00,738.11 507.00,738.56 ZM 233.41 770.84 C231.17,771.10 231.00,770.83 231.57,768.56 C231.79,770.71 232.26,770.94 233.41,770.84 ZM 262.08 766.08 C264.82,763.34 265.47,759.45 264.57,756.18 C265.67,759.31 265.19,762.96 262.08,766.08 ZM 244.98 760.64 C245.83,765.07 249.69,769.00 255.00,769.00 C249.47,769.00 245.68,765.11 244.98,760.64 ZM 828.41 719.41 C827.87,718.61 827.15,717.27 826.13,715.25 C824.46,711.95 822.78,709.21 822.29,709.00 C822.78,709.21 824.51,711.95 826.24,715.25 ZM 578.06 755.70 C577.22,753.46 577.53,751.09 578.59,749.04 C577.65,751.23 577.35,753.80 578.06,755.70 ZM 490.29 748.67 C488.90,747.36 488.32,746.36 488.11,744.83 C488.46,746.19 489.17,747.51 490.29,748.67 ZM 489.43 737.52 C491.15,734.71 494.29,733.01 498.17,733.08 C494.27,733.01 491.18,734.89 489.43,737.52 ZM 613.26 751.24 C614.14,752.24 614.70,752.68 615.32,752.78 C615.61,752.84 615.91,752.81 616.27,752.75 C615.62,752.89 615.18,752.91 614.81,752.78 C614.31,752.60 613.92,752.12 613.26,751.24 ZM 255.00 768.00 C253.76,768.00 252.70,767.36 251.89,766.20 C252.77,767.22 254.09,768.00 255.00,768.00 ZM 663.71 720.17 C663.81,720.06 663.91,720.00 664.00,720.00 C664.21,720.00 665.02,720.76 666.15,721.98 C664.97,720.76 664.20,720.18 663.71,720.17 ZM 591.67 746.25 C592.36,746.69 592.88,746.91 593.20,746.90 C592.82,747.12 592.19,746.93 591.67,746.25 ZM 582.67 755.11 C582.22,753.65 582.04,752.09 582.14,750.61 C582.12,751.42 582.18,752.31 582.31,753.29 C582.40,753.93 582.52,754.54 582.67,755.11 ZM 628.31 736.75 C626.52,736.12 625.52,735.59 625.02,734.92 C625.65,735.53 626.81,736.19 628.31,736.75 ZM 606.75 737.00 C606.37,737.01 606.12,737.19 605.98,737.51 C605.99,737.41 606.00,737.34 606.00,737.32 C606.00,736.82 606.27,736.73 606.75,737.00 ZM 387.70 728.08 C387.30,728.22 387.00,728.75 387.00,729.67 C387.00,728.44 387.24,727.92 387.70,728.08 ZM 635.30 739.87 C634.91,739.46 634.32,739.07 633.45,738.66 C634.06,738.93 634.53,739.15 634.76,739.31 C634.97,739.44 635.15,739.64 635.30,739.87 ZM 506.22 735.82 C505.75,735.35 505.22,735.07 504.85,735.06 C505.10,735.02 505.46,735.16 505.93,735.46 C506.11,735.57 506.28,735.77 506.43,736.04 C506.36,735.97 506.29,735.89 506.22,735.82 ZM 258.91 764.70 C258.08,766.65 256.75,768.00 255.00,768.00 C256.67,768.00 258.04,766.67 258.91,764.70 ZM 493.65 748.72 C493.18,747.78 493.01,746.56 493.01,744.71 C493.02,746.44 493.21,747.75 493.65,748.72 ZM 733.29 710.10 C732.21,710.16 730.75,710.44 729.57,710.90 C730.87,710.39 732.28,710.12 733.29,710.10 ZM 625.00 747.65 C625.03,748.12 625.19,748.49 625.43,748.68 C625.12,748.50 625.00,748.20 625.00,747.77 ZM 433.56 723.72 C435.17,723.84 437.05,724.72 437.74,725.66 C437.05,724.72 435.14,723.84 433.49,723.72 C433.26,723.70 433.04,723.69 432.84,723.68 C433.06,723.69 433.30,723.70 433.56,723.72 ZM 796.50 706.62 C795.85,706.20 795.20,706.01 794.51,706.00 C794.55,706.00 794.59,706.00 794.63,706.00 C795.26,706.00 795.86,706.19 796.50,706.62 ZM 591.73 753.55 C591.74,753.55 591.75,753.54 591.76,753.54 C594.59,752.45 595.50,753.07 595.50,756.08 C595.49,753.06 594.61,752.47 591.73,753.55 ZM 453.51 743.00 C453.51,743.00 453.51,743.00 453.51,743.00 C453.70,742.94 454.76,741.37 455.89,739.46 C454.74,741.41 453.67,743.00 453.51,743.00 ZM 849.28 734.98 L 849.33 735.00 C850.20,735.35 850.88,735.60 851.40,735.73 C850.92,735.61 850.31,735.39 849.54,735.09 C849.45,735.06 849.37,735.02 849.28,734.98 ZM 225.26 754.70 C225.38,754.75 225.54,754.71 225.77,754.58 C225.54,754.75 225.38,754.79 225.26,754.70 ZM 494.87 737.34 C495.83,736.01 497.19,735.06 499.00,734.41 C497.20,735.06 495.83,736.01 494.87,737.34 ZM 587.75 762.00 C587.49,762.00 587.22,762.00 586.96,761.99 ZM 734.63 710.79 C734.64,710.72 734.66,710.67 734.69,710.64 L 734.69 710.64 C734.68,710.69 734.66,710.73 734.63,710.79 ZM 578.81 757.27 C578.52,756.78 578.26,756.26 578.06,755.70 C578.26,756.24 578.51,756.77 578.81,757.27 Z" fill="rgb(185,126,153)"/>
<path d="M 0.00 512.00 L 0.00 0.00 L 512.00 0.00 L 1024.00 0.00 L 1024.00 512.00 L 1024.00 1024.00 L 512.00 1024.00 L 0.00 1024.00 L 0.00 512.00 ZM 69.61 842.82 C72.74,837.86 78.32,829.91 82.01,825.15 C89.82,815.09 118.94,786.24 128.13,779.48 C133.88,775.25 134.84,774.88 138.97,775.27 C141.46,775.51 147.18,777.36 151.68,779.39 C161.85,783.98 169.61,785.61 187.60,786.95 C200.43,787.90 221.86,787.27 236.50,785.50 C271.58,781.27 283.09,779.43 320.50,772.01 C377.69,760.68 402.15,758.34 434.70,761.08 C450.55,762.41 466.62,765.08 483.23,769.14 L 495.95 772.25 L 495.33 785.88 C494.76,798.44 494.88,799.84 496.81,803.62 C499.72,809.33 504.47,811.53 513.50,811.38 C523.99,811.20 538.19,805.97 569.95,790.57 C609.87,771.22 634.72,762.19 669.01,754.57 C677.53,752.68 687.65,750.37 691.50,749.44 C696.06,748.35 703.89,747.65 714.00,747.45 C722.53,747.28 734.22,746.67 740.00,746.10 C767.53,743.39 810.12,746.39 852.50,754.03 C861.30,755.62 870.30,757.05 872.50,757.21 C876.20,757.48 876.52,757.30 876.82,754.75 C876.99,753.24 877.44,752.02 877.82,752.04 C878.19,752.06 880.97,754.06 884.00,756.48 C912.42,779.21 968.66,807.73 998.25,814.42 C1000.70,814.97 1001.00,814.76 1001.00,812.45 C1001.00,808.90 999.51,806.34 994.01,800.47 C986.03,791.95 978.03,777.82 978.01,772.20 C977.99,765.66 981.29,761.75 992.85,754.64 L 1000.20 750.13 L 996.85 749.65 C980.70,747.35 976.40,746.48 968.79,743.95 C956.94,740.02 948.48,735.60 935.66,726.60 C921.31,716.54 916.29,711.94 899.80,693.79 C883.45,675.78 875.69,668.83 867.50,664.89 C860.49,661.52 855.28,661.24 849.38,663.91 C844.23,666.25 842.00,669.37 842.00,674.24 L 842.00 678.03 L 838.75 676.61 C836.96,675.83 832.58,673.93 829.00,672.39 C825.42,670.86 822.39,669.54 822.26,669.48 C822.13,669.41 823.10,665.11 824.41,659.93 C825.73,654.74 828.22,642.17 829.95,632.00 C831.68,621.83 835.13,602.70 837.62,589.50 C840.11,576.30 844.60,552.45 847.61,536.50 C856.72,488.23 865.49,434.29 872.40,384.00 C883.19,305.57 883.41,301.05 877.64,276.00 C869.44,240.43 856.95,210.97 842.44,193.00 C838.22,187.77 834.06,182.04 833.20,180.25 C832.34,178.46 831.24,177.00 830.77,177.00 C828.59,177.00 818.66,187.84 808.32,201.50 C792.52,222.39 776.21,242.99 767.70,252.81 C758.97,262.90 755.00,268.66 755.00,271.25 C755.00,272.96 755.52,272.79 759.36,269.85 C761.77,268.01 767.50,263.22 772.11,259.21 C776.73,255.21 783.30,250.54 786.72,248.84 C792.09,246.18 793.75,245.81 798.88,246.18 C803.10,246.49 805.97,247.37 808.77,249.23 C816.70,254.48 827.89,272.43 831.67,286.00 C834.43,295.88 834.18,330.74 831.19,353.00 C827.11,383.34 821.94,415.39 817.87,435.50 C813.59,456.62 807.96,476.00 806.10,476.00 C805.69,476.00 804.39,471.39 803.21,465.75 C802.03,460.11 799.93,450.10 798.54,443.50 C797.15,436.90 795.10,423.52 793.99,413.77 C792.87,404.03 791.67,395.31 791.32,394.40 C790.47,392.18 784.78,392.84 761.04,397.91 C750.89,400.08 742.28,401.67 741.90,401.44 C740.38,400.50 734.48,371.76 731.85,352.50 C731.18,347.55 730.60,337.20 730.56,329.50 C730.50,316.12 730.65,315.09 733.81,306.17 C735.63,301.04 736.98,295.89 736.81,294.74 C736.48,292.48 736.93,291.94 721.27,313.12 C714.61,322.13 708.46,328.20 703.27,330.89 C701.32,331.90 700.99,331.77 700.53,329.77 C695.12,305.97 694.86,283.49 699.50,238.00 C700.87,224.52 702.29,208.43 702.65,202.22 L 703.31 190.95 L 697.40 191.53 C694.16,191.86 685.65,192.82 678.50,193.68 C653.61,196.67 635.80,193.66 614.18,182.81 C602.19,176.79 601.79,176.67 599.18,178.22 C591.58,182.75 576.80,208.71 567.97,233.00 C547.48,289.43 540.03,337.39 540.01,413.02 C539.99,474.35 544.91,521.39 557.14,577.00 C568.86,630.26 583.18,667.68 601.13,691.91 C605.18,697.38 608.76,701.89 609.07,701.93 C609.38,701.97 612.08,700.16 615.07,697.91 C627.27,688.73 650.69,679.26 666.97,676.92 C675.24,675.73 700.55,676.16 709.25,677.63 L 713.00 678.26 L 713.00 674.70 C713.00,672.74 712.31,667.86 711.47,663.86 C709.16,652.88 703.34,603.41 701.36,578.00 C698.87,545.99 698.84,498.55 701.30,487.14 C703.33,477.73 708.44,466.00 710.51,466.00 C712.59,466.00 713.12,467.55 712.03,470.42 C711.18,472.67 711.31,473.00 713.08,473.00 C714.20,473.00 718.92,471.42 723.57,469.50 C728.22,467.58 733.31,466.00 734.88,466.00 C737.65,466.00 737.76,466.20 738.43,472.25 C739.64,483.31 743.86,506.21 755.59,565.50 C772.07,648.72 774.00,659.39 774.00,667.23 L 774.00 671.73 L 769.61 672.33 C765.17,672.94 754.00,677.03 754.00,678.05 C754.00,678.35 756.08,679.61 758.62,680.85 C761.16,682.08 763.06,683.27 762.85,683.48 C762.63,683.70 755.94,684.36 747.98,684.96 C721.48,686.93 688.91,691.04 664.48,695.48 C629.70,701.82 587.68,715.07 563.05,727.48 L 556.27 730.89 L 553.41 727.90 C544.24,718.33 524.44,711.05 494.00,706.05 C487.12,704.93 465.82,702.65 446.66,701.00 C416.16,698.38 410.64,698.14 402.36,699.12 C397.16,699.73 392.64,699.97 392.32,699.65 C391.36,698.69 398.49,692.16 401.09,691.61 C402.42,691.34 405.64,690.83 408.25,690.49 C411.96,690.01 413.00,689.48 413.00,688.05 C413.00,686.73 411.97,686.03 409.25,685.54 C405.64,684.88 397.00,680.51 397.00,679.35 C397.00,679.04 397.65,676.25 398.44,673.14 C400.34,665.68 401.58,656.00 403.99,629.50 C406.33,603.76 408.43,588.28 410.55,581.13 L 412.08 576.00 L 424.29 576.02 C441.95,576.04 452.92,578.91 463.25,586.20 C465.87,588.04 466.00,588.54 466.01,596.32 C466.02,600.82 466.71,612.15 467.54,621.50 C468.38,630.85 469.51,645.70 470.07,654.50 C470.62,663.30 471.32,672.11 471.63,674.08 L 472.18 677.67 L 466.23 679.84 C460.13,682.06 451.69,687.77 450.70,690.33 C450.25,691.52 452.35,691.84 462.83,692.21 C473.88,692.60 476.33,693.01 481.95,695.42 C489.44,698.64 491.37,698.52 502.29,694.15 C508.99,691.47 511.46,691.05 524.45,690.42 L 539.07 689.71 L 536.99 687.49 C534.79,685.14 524.27,679.71 519.90,678.66 L 517.30 678.04 L 516.62 656.77 C515.84,632.63 513.87,600.81 510.92,565.00 C509.81,551.53 508.50,531.28 508.01,520.00 C507.52,508.73 506.66,495.23 506.09,490.00 C502.79,459.60 500.29,428.56 494.95,352.00 C491.67,304.98 488.49,261.33 487.87,255.00 C487.26,248.68 486.55,228.95 486.29,211.18 C485.90,183.97 485.61,178.94 484.43,179.39 C480.93,180.73 473.09,181.10 469.37,180.10 C467.12,179.49 463.23,177.43 460.70,175.50 C458.18,173.58 455.88,172.00 455.59,172.00 C455.29,172.00 454.33,173.39 453.45,175.09 C449.58,182.58 433.58,185.48 420.04,181.15 C416.49,180.01 413.41,179.26 413.19,179.47 C412.98,179.69 413.84,181.73 415.12,184.00 C417.97,189.08 426.66,194.97 435.00,197.50 C438.30,198.50 441.00,199.81 440.99,200.41 C440.99,201.01 439.85,210.50 438.47,221.50 C437.08,232.50 427.84,306.30 417.93,385.50 C408.02,464.70 398.79,537.76 397.43,547.85 C395.14,564.81 393.25,572.00 391.08,572.00 C389.31,572.00 379.76,581.48 375.45,587.51 C370.72,594.15 367.98,600.57 368.03,604.88 C368.07,607.34 368.32,607.20 372.28,602.50 C374.60,599.75 377.85,596.20 379.50,594.61 C382.89,591.34 392.03,585.00 393.33,585.00 C394.52,585.00 393.48,593.47 388.93,621.00 C384.55,647.43 382.00,667.75 382.00,676.13 L 382.00 681.77 L 375.75 685.81 C372.31,688.03 366.35,691.12 362.50,692.68 L 355.50 695.50 L 370.82 695.78 C386.00,696.05 386.13,696.07 385.82,698.28 C385.51,700.43 385.04,700.52 370.00,701.13 C344.30,702.18 319.17,706.07 279.50,715.15 C249.77,721.96 223.59,724.99 222.53,721.75 C222.30,721.06 221.97,714.17 221.79,706.44 L 221.47 692.38 L 231.98 691.20 C237.77,690.54 246.10,689.52 250.50,688.91 C263.31,687.16 288.35,688.39 301.50,691.42 C318.83,695.41 317.46,695.91 325.84,682.62 C341.01,658.57 347.18,640.15 357.39,588.50 C367.16,539.03 370.26,502.62 370.22,438.00 C370.17,364.85 365.10,320.06 351.60,273.37 C337.80,225.68 326.47,200.87 311.07,184.66 C303.25,176.42 303.15,176.40 296.27,180.50 C283.05,188.38 265.23,193.00 248.11,193.00 C227.35,193.00 209.23,186.94 194.02,174.92 C191.29,172.76 188.82,171.00 188.53,171.00 C187.13,171.00 188.29,176.12 190.97,181.78 C195.69,191.75 206.55,202.21 220.15,209.89 C224.60,212.40 225.89,213.70 226.38,216.15 C227.17,220.10 226.70,417.63 225.90,418.43 C225.57,418.76 221.30,420.15 216.40,421.51 C191.51,428.43 190.00,429.27 190.00,436.17 C190.00,440.78 192.16,444.00 195.26,444.00 C196.33,444.00 202.67,441.70 209.35,438.88 C216.03,436.06 223.19,433.53 225.25,433.25 L 229.00 432.74 L 229.00 447.92 L 229.00 463.10 L 216.77 469.03 C210.04,472.29 202.17,475.49 199.28,476.14 L 194.02 477.31 L 194.62 482.42 C195.04,485.96 194.74,488.68 193.67,491.25 C192.82,493.29 192.47,495.17 192.89,495.43 C193.31,495.69 201.03,492.33 210.03,487.95 C219.04,483.58 226.99,480.00 227.71,480.00 C228.67,480.00 229.00,482.30 229.00,488.99 C229.00,493.93 229.75,507.77 230.67,519.74 C232.55,544.32 233.06,604.86 231.62,632.25 L 230.73 649.00 L 237.87 649.00 C243.77,649.00 245.36,648.64 247.09,646.91 C248.56,645.44 248.98,644.18 248.49,642.66 C248.10,641.47 247.42,618.67 246.97,592.00 C246.51,565.33 245.68,533.60 245.11,521.50 C244.54,509.40 243.78,493.14 243.41,485.36 L 242.74 471.22 L 246.12 470.50 C247.98,470.11 255.80,467.18 263.50,463.98 C271.20,460.78 280.20,457.49 283.50,456.66 C290.35,454.95 307.42,453.00 315.60,453.00 L 321.12 453.00 L 320.52 470.25 C318.55,526.44 314.78,564.00 305.29,621.84 C301.90,642.55 300.15,650.81 298.81,652.51 C296.75,655.14 292.06,656.37 277.86,658.02 C247.40,661.56 230.99,666.60 209.34,679.10 C195.87,686.87 191.41,688.51 178.73,690.40 C165.99,692.29 158.76,694.63 145.81,701.05 C117.58,715.04 96.78,728.80 78.87,745.33 C51.29,770.78 45.05,775.81 34.25,781.29 C28.62,784.16 24.01,786.76 24.00,787.07 C24.00,787.83 40.81,796.59 44.00,797.49 C45.38,797.87 48.86,799.59 51.75,801.31 L 57.00 804.42 L 57.00 828.54 C57.00,841.81 57.26,852.93 57.59,853.25 C57.91,853.57 59.47,853.39 61.05,852.83 C63.13,852.11 65.51,849.32 69.61,842.82 ZM 62.61 821.40 L 63.30 802.33 L 59.49 799.42 C57.39,797.81 52.74,794.91 49.16,792.96 C45.58,791.02 42.47,788.92 42.27,788.31 C41.74,786.71 52.69,775.29 63.92,765.72 C69.19,761.23 76.86,754.46 80.97,750.67 C89.90,742.43 96.45,737.35 108.50,729.29 C118.14,722.85 131.99,715.00 133.73,715.00 C134.41,715.00 135.00,721.64 135.40,733.75 C135.75,744.06 136.25,755.88 136.53,760.00 L 137.03 767.50 L 133.23 770.16 C115.26,782.74 92.02,804.17 79.71,819.50 C75.30,825.00 69.49,831.97 66.81,834.99 L 61.93 840.48 L 62.61 821.40 ZM 981.50 802.28 C957.45,796.45 914.89,773.11 885.11,749.41 L 876.71 742.74 L 877.58 732.12 C879.18,712.59 878.82,705.13 876.00,699.50 C874.50,696.50 871.90,693.39 869.50,691.71 C856.44,682.58 852.34,679.12 850.30,675.50 L 848.04 671.50 L 850.77 670.30 C852.27,669.63 856.00,669.07 859.05,669.05 C866.65,668.98 871.08,671.97 883.52,685.56 C902.49,706.28 911.54,715.25 921.67,723.36 C940.26,738.25 950.38,743.55 972.50,749.97 C982.93,752.99 983.03,753.12 978.59,758.04 C974.81,762.21 971.06,769.15 971.03,772.00 C970.99,775.75 973.45,781.28 979.48,790.98 C983.07,796.74 986.00,801.81 986.00,802.23 C986.00,803.05 984.73,803.07 981.50,802.28 ZM 552.03 788.24 C552.05,786.73 552.49,782.35 553.00,778.50 C553.52,774.65 554.90,763.85 556.07,754.50 C557.25,745.15 558.72,736.86 559.35,736.08 C561.38,733.57 584.10,723.30 597.00,719.06 C623.00,710.52 662.62,701.86 702.00,696.13 C706.12,695.53 712.88,694.46 717.00,693.77 C727.07,692.07 804.45,692.12 822.50,693.85 C847.16,696.20 861.59,698.70 867.21,701.61 C873.10,704.65 874.20,713.24 871.85,737.75 L 870.67 750.00 L 867.78 750.00 C864.47,750.00 857.85,749.07 832.50,745.02 C798.81,739.65 798.02,739.59 762.00,739.60 C719.14,739.61 698.03,741.73 667.00,749.16 C642.29,755.07 596.44,771.04 575.00,781.21 C569.22,783.95 561.69,787.27 558.25,788.59 L 552.00 790.98 L 552.03 788.24 ZM 593.00 760.55 C594.83,759.53 595.50,758.33 595.50,756.08 C595.50,753.07 594.59,752.45 591.76,753.54 C590.86,753.88 590.51,755.09 590.77,756.90 C591.11,759.19 590.75,759.83 588.84,760.33 C585.64,761.17 582.98,758.31 582.31,753.29 C581.56,747.67 583.22,745.00 587.48,745.00 C589.35,745.00 591.16,745.45 591.50,746.00 C592.47,747.56 594.00,747.17 593.37,745.53 C593.06,744.72 591.33,743.78 589.52,743.44 C582.47,742.11 575.69,749.36 578.06,755.70 C580.21,761.47 587.22,763.74 593.00,760.55 ZM 617.77 752.37 L 620.03 751.76 L 617.53 749.26 C616.16,747.88 613.36,744.56 611.31,741.88 C608.20,737.79 606.00,735.91 606.00,737.32 C606.00,737.49 605.53,740.20 604.95,743.33 C603.66,750.32 604.11,751.21 608.21,749.78 C610.99,748.81 611.56,748.93 612.93,750.80 C614.70,753.20 614.68,753.19 617.77,752.37 ZM 634.54 746.97 C636.32,745.49 636.47,740.42 634.76,739.31 C634.08,738.86 631.50,737.83 629.01,737.00 C626.33,736.11 624.50,734.89 624.50,734.00 C624.50,731.83 628.84,731.55 631.08,733.57 C633.24,735.53 633.41,735.20 632.06,731.66 C631.22,729.44 630.76,729.27 627.68,729.96 C622.79,731.06 622.00,731.75 622.00,734.94 C622.00,738.25 623.31,739.52 628.61,741.35 C631.29,742.28 632.50,743.29 632.50,744.60 C632.50,746.15 631.81,746.48 628.75,746.39 C626.04,746.30 625.00,746.69 625.00,747.77 C625.00,748.94 625.88,749.15 629.04,748.72 C631.26,748.42 633.74,747.63 634.54,746.97 ZM 649.73 741.56 C649.86,741.45 649.52,740.05 648.98,738.43 C644.89,726.20 644.85,724.96 648.66,726.42 C649.87,726.89 650.12,727.89 649.68,730.61 C649.11,734.10 649.14,734.15 651.30,732.73 C655.44,729.99 654.29,723.99 649.63,724.01 C648.46,724.01 645.78,724.49 643.68,725.07 C640.97,725.82 640.13,726.48 640.78,727.32 C641.29,727.97 642.53,731.77 643.55,735.76 C645.20,742.26 645.60,742.95 647.44,742.38 C648.57,742.04 649.60,741.67 649.73,741.56 ZM 664.00 737.00 C664.00,736.45 663.52,736.00 662.93,736.00 C660.62,736.00 662.66,732.60 665.41,731.86 C668.88,730.94 670.00,731.46 670.00,734.01 C670.00,735.67 670.36,735.77 672.97,734.86 L 675.94 733.82 L 670.36 726.91 C667.29,723.11 664.43,720.00 664.00,720.00 C663.14,720.00 661.94,724.91 661.69,729.50 C661.60,731.15 661.13,732.78 660.65,733.13 C659.36,734.05 660.91,738.00 662.57,738.00 C663.36,738.00 664.00,737.55 664.00,737.00 ZM 852.62 734.25 C852.34,733.29 851.80,728.79 851.42,724.25 C851.05,719.71 850.44,716.00 850.07,716.00 C848.95,716.00 841.59,723.93 842.17,724.51 C842.47,724.80 843.28,724.36 843.98,723.52 C845.85,721.27 847.00,721.67 847.00,724.57 C847.00,726.68 846.65,727.02 845.00,726.50 C843.90,726.15 843.00,726.31 843.00,726.86 C843.00,727.41 844.01,728.00 845.25,728.18 C846.98,728.43 847.51,729.17 847.54,731.41 C847.57,733.36 848.23,734.58 849.54,735.09 C852.60,736.29 853.17,736.13 852.62,734.25 ZM 687.43 731.10 C688.76,730.58 689.00,730.12 688.18,729.61 C686.84,728.78 686.55,724.00 687.85,724.00 C688.31,724.00 689.54,724.94 690.58,726.09 C693.21,728.99 695.56,730.11 697.49,729.36 C698.87,728.84 698.61,728.19 695.87,725.37 C693.33,722.75 692.87,721.73 693.80,720.80 C695.34,719.26 695.34,715.74 693.80,714.20 C692.35,712.75 687.00,712.59 687.00,714.00 C687.00,714.55 687.64,715.00 688.43,715.00 C689.22,715.00 690.16,715.92 690.52,717.05 C691.21,719.25 689.54,722.00 687.50,722.00 C686.13,722.00 684.65,716.38 685.61,714.82 C685.96,714.25 685.03,713.98 683.36,714.17 C681.50,714.39 680.61,715.00 680.81,715.93 C680.98,716.72 681.65,720.66 682.29,724.68 C683.45,732.02 683.85,732.51 687.43,731.10 ZM 745.97 709.75 C746.87,708.24 746.60,708.00 744.01,708.00 C740.57,708.00 740.34,708.48 742.63,710.78 C743.70,711.85 743.88,712.54 743.13,712.79 C742.51,713.00 742.00,713.77 742.00,714.52 C742.00,715.26 741.52,717.12 740.94,718.65 L 739.88 721.44 L 737.01 716.51 C735.43,713.81 734.36,711.23 734.63,710.80 C735.23,709.81 732.18,709.87 729.57,710.90 C728.37,711.37 728.05,711.91 728.72,712.33 C729.32,712.70 731.98,716.70 734.63,721.22 L 739.45 729.44 L 742.19 720.47 C743.70,715.54 745.40,710.71 745.97,709.75 ZM 830.40 724.75 C830.76,722.41 831.32,719.04 831.64,717.25 C831.99,715.27 831.81,714.00 831.17,714.00 C830.59,714.00 829.98,715.69 829.81,717.75 L 829.50 721.50 L 826.24 715.25 C824.44,711.81 822.64,708.99 822.24,708.99 C821.83,708.98 820.56,708.72 819.41,708.41 C817.57,707.92 817.38,708.21 817.78,710.93 C818.02,712.62 818.74,714.00 819.36,714.01 C819.99,714.01 822.30,717.39 824.49,721.51 C826.69,725.63 828.77,729.00 829.11,729.00 C829.46,729.00 830.04,727.09 830.40,724.75 ZM 818.03 726.53 C817.24,725.58 817.05,723.67 817.49,721.03 C817.94,718.38 817.80,717.00 817.09,717.00 C816.49,717.00 816.00,718.35 816.00,720.00 C816.00,721.65 815.13,723.87 814.06,724.94 C812.14,726.86 812.15,726.88 814.81,727.29 C816.29,727.52 817.89,727.77 818.37,727.85 C818.85,727.93 818.70,727.34 818.03,726.53 ZM 760.34 716.25 L 760.50 707.00 L 757.75 707.00 L 755.00 707.00 L 755.00 716.57 L 755.00 726.13 L 757.59 725.82 C760.15,725.50 760.18,725.40 760.34,716.25 ZM 770.59 722.92 C770.65,722.14 770.76,720.94 770.85,720.25 C770.94,719.52 772.45,719.00 774.53,719.00 C777.64,719.00 778.12,719.35 778.65,722.00 C779.15,724.50 779.73,725.00 782.12,725.00 C783.71,725.00 785.00,724.80 785.00,724.55 C785.00,723.60 777.73,707.46 776.91,706.57 C776.40,706.03 775.42,707.15 774.52,709.29 C772.64,713.80 772.64,714.08 774.50,713.36 C775.33,713.05 776.00,713.25 776.00,713.81 C776.00,714.38 776.27,715.55 776.61,716.42 C777.06,717.61 776.57,718.00 774.61,718.00 C773.17,718.00 771.98,717.44 771.96,716.75 C771.91,715.28 769.58,719.44 768.52,722.87 C767.98,724.63 768.14,725.12 769.14,724.79 C769.88,724.54 770.54,723.70 770.59,722.92 ZM 794.20 723.80 C792.79,722.39 792.56,711.00 793.95,711.00 C794.47,711.00 797.05,714.15 799.70,717.99 C802.34,721.84 804.77,724.99 805.11,724.99 C805.44,725.00 806.02,721.29 806.40,716.75 C806.77,712.21 807.51,708.35 808.04,708.17 C810.20,707.42 808.79,706.00 805.88,706.00 C803.29,706.00 802.96,706.24 803.94,707.43 C804.59,708.21 804.98,710.77 804.81,713.11 L 804.50 717.36 L 800.74 711.68 C797.94,707.45 796.38,706.00 794.63,706.00 C792.42,706.00 792.23,706.48 791.59,713.61 C791.21,717.80 791.14,721.47 791.43,721.77 C791.73,722.06 791.19,722.89 790.23,723.62 C788.69,724.79 788.88,724.94 791.95,724.97 C794.63,724.99 795.13,724.73 794.20,723.80 ZM 189.00 781.43 C173.92,779.71 159.31,775.97 148.40,771.02 L 142.29 768.26 L 141.62 748.38 C141.25,737.45 140.67,725.41 140.33,721.64 L 139.72 714.78 L 143.11 715.50 C144.97,715.90 152.57,718.15 160.00,720.51 C182.54,727.68 187.81,728.40 218.00,728.45 C248.18,728.51 247.74,728.56 304.00,717.48 C342.91,709.82 350.40,708.54 368.00,706.58 C407.12,702.22 449.39,704.21 496.00,712.62 C521.60,717.24 540.01,723.90 548.33,731.53 C551.47,734.41 552.05,735.52 551.60,737.77 C551.29,739.27 550.58,745.00 550.02,750.50 C547.92,771.14 546.97,779.36 546.66,779.67 C546.23,780.10 533.71,776.79 519.34,772.43 C478.41,760.02 424.98,751.88 395.00,753.48 C375.91,754.51 364.34,756.45 331.50,764.14 C307.71,769.71 296.71,771.81 269.50,775.97 C263.49,776.89 253.32,778.13 236.50,780.01 C226.64,781.10 194.58,782.07 189.00,781.43 ZM 221.42 770.36 C222.34,767.96 221.35,767.51 219.42,769.44 C218.48,770.38 216.60,770.98 215.12,770.80 C212.88,770.54 212.46,769.96 212.19,766.75 C211.95,763.89 212.25,763.00 213.44,763.00 C214.30,763.00 215.00,763.45 215.00,764.00 C215.00,764.55 215.45,765.00 216.00,765.00 C216.55,765.00 217.00,763.88 217.00,762.50 C217.00,759.79 216.06,759.34 214.23,761.17 C212.78,762.62 211.68,760.30 212.17,756.82 C212.59,753.87 216.43,753.18 219.08,755.57 C220.92,757.23 221.00,757.22 221.00,755.15 C221.00,753.16 220.50,753.00 214.25,753.01 L 207.50 753.02 L 207.40 762.51 L 207.31 772.00 L 214.05 772.00 C219.38,772.00 220.92,771.66 221.42,770.36 ZM 236.09 761.75 C235.90,753.81 236.05,753.00 237.74,753.00 C238.76,753.00 240.14,753.54 240.80,754.20 C241.73,755.13 242.00,754.91 242.00,753.20 C242.00,751.11 241.59,751.00 233.50,751.00 C225.41,751.00 225.00,751.11 225.00,753.20 C225.00,754.91 225.27,755.13 226.20,754.20 C226.86,753.54 228.17,753.00 229.12,753.00 C230.50,753.00 230.98,754.29 231.53,759.48 C231.92,763.04 231.94,767.12 231.58,768.55 C230.99,770.90 231.17,771.11 233.62,770.82 L 236.31 770.50 L 236.09 761.75 ZM 190.16 765.25 C189.99,762.91 190.22,761.00 190.67,761.00 C191.13,761.00 192.78,763.03 194.34,765.50 C196.71,769.25 197.70,770.00 200.27,770.00 L 203.35 770.00 L 201.30 767.75 C197.30,763.35 196.74,761.26 198.98,759.02 C201.41,756.59 201.45,756.09 199.44,753.22 C198.48,751.84 196.87,751.01 195.19,751.03 C192.88,751.06 192.75,751.21 194.25,752.08 C197.84,754.17 195.24,761.07 191.41,759.60 C190.19,759.14 189.89,757.99 190.17,754.99 C190.52,751.39 190.33,751.00 188.28,751.00 C186.36,751.00 186.00,751.53 186.00,754.35 C186.00,756.20 185.71,760.51 185.35,763.93 L 184.70 770.16 L 187.58 769.83 C190.32,769.52 190.45,769.28 190.16,765.25 ZM 262.08 766.08 C271.24,756.91 257.58,743.05 248.11,751.90 C241.40,758.17 245.77,769.00 255.00,769.00 C258.26,769.00 259.78,768.37 262.08,766.08 ZM 178.56 758.50 L 179.50 749.00 L 176.86 749.00 C174.28,749.00 174.21,749.16 173.84,756.41 C173.57,761.90 172.98,764.37 171.58,765.91 C169.69,768.00 169.70,768.00 173.66,768.00 L 177.63 768.00 L 178.56 758.50 ZM 274.49 766.00 C275.45,766.00 275.67,764.92 275.27,762.00 C274.60,756.96 275.80,756.92 279.78,761.87 C282.27,764.98 283.39,765.65 285.43,765.26 L 287.96 764.77 L 284.50 760.73 C281.71,757.47 281.30,756.48 282.38,755.59 C284.57,753.80 284.94,751.37 283.37,749.11 C282.18,747.42 280.86,747.00 276.69,747.02 C273.84,747.02 270.98,747.36 270.36,747.77 C269.54,748.29 269.44,750.81 269.99,756.46 C270.42,760.84 270.52,765.08 270.21,765.88 C269.80,766.95 270.13,767.17 271.41,766.67 C272.37,766.30 273.76,766.00 274.49,766.00 ZM 167.55 760.55 C169.41,758.68 170.00,757.03 170.00,753.66 C170.00,747.01 167.69,744.75 160.38,744.22 L 154.46 743.79 L 154.16 750.52 C154.00,754.21 153.44,758.34 152.93,759.68 C152.42,761.03 152.00,762.33 152.00,762.57 C152.00,762.80 154.95,763.00 158.55,763.00 C164.16,763.00 165.44,762.65 167.55,760.55 ZM 298.40 762.40 C299.47,761.99 299.70,761.28 299.14,760.15 C298.69,759.24 297.75,755.24 297.07,751.25 C295.90,744.50 295.64,744.00 293.30,744.00 C291.55,744.00 290.95,744.43 291.33,745.41 C291.63,746.19 292.43,750.46 293.11,754.91 C294.34,762.96 294.90,763.74 298.40,762.40 ZM 312.28 758.39 C312.62,758.05 311.97,756.52 310.84,754.99 C308.00,751.16 307.25,743.89 309.46,741.68 C310.94,740.20 310.96,740.00 309.57,740.00 C307.42,740.00 304.19,743.41 303.41,746.49 C302.60,749.75 304.57,754.51 307.77,757.03 C310.42,759.12 311.29,759.38 312.28,758.39 ZM 524.69 757.05 C530.92,753.25 530.79,742.39 524.48,739.99 C518.26,737.63 512.99,739.19 510.42,744.15 C507.57,749.67 509.93,755.45 516.02,757.88 C519.68,759.34 521.16,759.20 524.69,757.05 ZM 320.28 756.25 C326.04,749.88 322.92,739.00 315.32,739.00 L 313.09 739.00 L 315.47 741.37 C318.70,744.61 319.83,752.09 317.59,755.50 C316.29,757.48 316.24,758.00 317.32,758.00 C318.07,758.00 319.40,757.21 320.28,756.25 ZM 501.00 752.00 C501.00,751.45 499.74,751.00 498.20,751.00 C494.36,751.00 493.00,749.31 493.01,744.55 C493.03,738.99 494.86,735.90 499.00,734.41 L 502.50 733.15 L 498.17 733.08 C492.23,732.97 488.00,737.03 488.00,742.85 C488.00,746.26 488.56,747.31 491.73,749.93 C495.32,752.89 501.00,754.16 501.00,752.00 ZM 354.34 750.42 C355.51,749.97 354.59,748.09 350.17,741.96 C347.05,737.62 344.05,734.21 343.50,734.37 C341.47,734.95 341.77,740.15 343.92,741.66 C346.35,743.36 346.64,745.00 344.50,745.00 C343.67,745.00 343.00,745.50 343.00,746.11 C343.00,746.77 343.94,746.98 345.34,746.63 C347.15,746.18 347.99,746.61 349.01,748.52 C350.35,751.03 351.60,751.47 354.34,750.42 ZM 256.74 743.40 C255.47,742.13 253.00,743.97 253.00,746.19 L 253.00 748.44 L 255.19 746.25 C256.40,745.04 257.10,743.76 256.74,743.40 ZM 479.48 745.97 C478.57,744.50 482.15,730.00 483.43,729.98 C484.02,729.98 483.83,729.53 483.00,729.00 C481.23,727.85 476.67,727.66 477.35,728.76 C477.89,729.63 474.87,742.90 473.74,744.66 C472.89,745.98 474.39,746.80 477.81,746.92 C479.15,746.97 479.85,746.57 479.48,745.97 ZM 373.78 744.44 C375.00,743.59 376.00,742.39 376.00,741.79 C376.00,741.17 375.24,741.37 374.25,742.25 C368.84,747.09 363.00,742.94 363.00,734.25 C363.00,729.88 364.39,728.00 367.64,728.00 C368.87,728.00 370.16,727.55 370.50,727.00 C370.84,726.45 370.26,726.00 369.21,726.00 C359.50,726.00 354.38,736.54 360.92,743.08 C364.29,746.45 370.04,747.06 373.78,744.44 ZM 466.44 737.87 C466.83,733.95 467.55,729.68 468.05,728.37 C468.89,726.17 468.71,726.00 465.58,726.00 C462.27,726.00 459.78,728.61 461.84,729.92 C462.76,730.51 461.80,739.96 460.49,743.25 C459.91,744.68 460.33,745.00 462.76,745.00 C465.72,745.00 465.75,744.96 466.44,737.87 ZM 455.90 739.44 C458.32,735.34 458.42,734.91 456.84,735.25 C456.18,735.39 455.05,733.00 454.23,729.75 C453.39,726.41 452.23,724.00 451.47,724.00 C450.75,724.00 449.49,723.74 448.68,723.43 C447.11,722.83 446.68,724.13 445.42,733.25 C445.03,736.14 445.16,738.00 445.76,738.00 C446.30,738.00 447.05,735.68 447.42,732.85 C448.25,726.63 449.13,727.37 451.45,736.25 C452.43,739.96 453.35,743.00 453.51,743.00 C453.67,743.00 454.75,741.40 455.90,739.44 ZM 438.42 740.36 C439.27,738.14 438.37,737.44 436.58,738.93 C435.78,739.60 433.86,740.00 432.31,739.82 C430.15,739.57 429.44,738.92 429.24,737.00 C429.10,735.62 429.44,733.83 430.01,733.00 C430.91,731.69 431.21,731.72 432.39,733.26 C433.61,734.85 433.79,734.67 434.34,731.31 C435.02,727.11 434.33,725.67 432.88,728.26 C431.30,731.07 429.85,730.26 430.19,726.75 C430.47,723.82 430.79,723.52 433.49,723.72 C435.14,723.84 437.05,724.72 437.74,725.66 C438.90,727.25 439.00,727.22 439.00,725.31 C439.00,722.94 436.62,722.03 430.32,722.01 L 426.14 722.00 L 425.54 727.75 C425.21,730.91 424.73,735.16 424.47,737.20 L 423.99 740.89 L 428.75 741.26 C431.36,741.47 434.46,741.72 435.64,741.82 C436.84,741.92 438.07,741.27 438.42,740.36 ZM 386.01 739.51 C383.94,737.02 385.57,734.83 389.24,735.19 C391.50,735.40 392.81,736.20 393.50,737.79 C394.29,739.61 395.02,739.96 397.00,739.46 C398.37,739.12 399.63,738.70 399.79,738.54 C399.96,738.37 398.78,736.27 397.18,733.87 C395.58,731.47 393.20,727.59 391.89,725.26 C390.57,722.92 389.22,721.01 388.87,721.01 C388.01,721.00 385.77,730.10 386.45,730.79 C386.75,731.09 387.00,730.58 387.00,729.67 C387.00,727.55 388.59,727.50 389.39,729.58 C390.45,732.32 390.07,733.00 387.50,733.00 C385.94,733.00 385.00,733.57 385.00,734.50 C385.00,735.33 384.51,736.00 383.92,736.00 C383.32,736.00 383.02,736.56 383.25,737.25 C383.49,737.94 382.96,739.05 382.09,739.72 C380.74,740.75 381.02,740.94 383.87,740.97 C386.75,741.00 387.06,740.78 386.01,739.51 ZM 507.00 738.56 C507.00,737.22 506.52,735.82 505.93,735.46 C504.39,734.51 504.11,735.15 504.70,738.25 C505.36,741.66 507.00,741.88 507.00,738.56 ZM 416.00 738.50 C419.88,736.50 421.47,731.06 419.54,726.45 C417.78,722.22 415.38,721.00 408.82,721.00 L 403.50 721.00 L 403.50 730.50 L 403.50 740.00 L 408.30 740.00 C410.94,740.00 414.41,739.32 416.00,738.50 ZM 434.31 718.91 C436.22,720.82 437.00,720.09 435.82,717.50 C434.46,714.52 431.48,714.23 430.04,716.93 C428.52,719.77 428.75,720.20 431.11,718.94 C432.63,718.13 433.52,718.12 434.31,718.91 ZM 635.45 670.91 C633.14,667.19 619.13,625.04 616.03,612.50 C606.96,575.86 598.83,523.38 597.34,491.75 L 596.69 478.00 L 600.09 478.02 C601.97,478.03 608.00,478.69 613.50,479.49 C619.00,480.28 630.36,481.24 638.75,481.62 C651.75,482.21 654.00,482.55 654.01,483.91 C654.01,484.78 654.45,494.05 654.98,504.50 C655.51,514.95 656.40,533.40 656.97,545.50 C661.03,632.82 662.10,654.05 662.63,658.14 C663.59,665.60 660.81,667.38 643.53,670.34 C639.33,671.06 635.70,671.32 635.45,670.91 ZM 780.00 607.75 C780.00,605.41 777.04,589.10 773.43,571.50 C760.09,506.49 754.24,475.97 752.52,462.50 L 751.89 457.50 L 764.28 454.68 C771.10,453.12 778.46,451.61 780.65,451.32 L 784.62 450.79 L 785.82 457.31 C786.48,460.90 788.80,469.61 790.97,476.67 C796.84,495.75 798.98,505.43 799.66,516.10 C800.27,525.52 800.11,526.50 790.94,568.85 C785.80,592.58 781.24,612.00 780.80,612.00 C780.36,612.00 780.00,610.09 780.00,607.75 ZM 409.01 560.25 C409.01,559.84 409.44,557.92 409.97,556.00 C415.11,537.12 432.03,407.12 438.99,333.04 C440.09,321.23 441.00,309.42 441.00,306.79 C441.00,304.15 441.45,302.00 442.00,302.00 C442.55,302.00 443.00,302.56 443.01,303.25 C443.06,309.56 445.54,337.54 447.55,354.45 C448.92,365.98 450.92,389.38 451.99,406.45 C453.07,423.53 454.43,445.15 455.01,454.50 C455.59,463.85 456.49,478.02 457.00,486.00 C457.52,493.98 458.43,508.60 459.03,518.50 C459.63,528.40 460.50,541.90 460.97,548.50 C461.44,555.10 461.68,560.65 461.49,560.84 C461.31,561.03 457.86,560.50 453.83,559.67 C439.97,556.81 433.33,556.65 423.26,558.92 C413.62,561.09 409.00,561.52 409.01,560.25 ZM 596.63 471.25 C595.00,458.85 594.08,439.32 593.46,404.00 L 592.78 365.50 L 613.14 355.24 C624.34,349.59 638.45,343.30 644.50,341.24 L 655.50 337.51 L 682.50 337.35 C713.12,337.17 712.00,336.89 714.48,345.24 C718.33,358.22 724.99,393.97 725.00,401.73 C725.00,405.62 724.69,406.11 721.25,407.86 C719.19,408.90 714.24,410.80 710.25,412.07 C704.79,413.82 703.10,414.78 703.42,415.95 C703.66,416.80 704.15,419.41 704.51,421.75 C705.14,425.77 705.35,426.00 708.53,426.00 C710.38,426.00 715.09,424.81 719.01,423.36 C725.10,421.10 726.34,420.92 727.52,422.11 C728.81,423.41 733.00,443.65 733.00,448.55 C733.00,450.39 732.04,451.01 727.25,452.30 C724.09,453.15 719.03,454.55 716.00,455.41 C703.96,458.83 698.14,456.93 684.50,445.13 C680.65,441.79 676.94,439.05 676.27,439.03 C675.59,439.01 669.51,444.57 662.77,451.38 C645.69,468.61 637.15,472.56 611.85,474.93 C596.08,476.41 597.35,476.71 596.63,471.25 ZM 243.00 443.58 L 243.00 430.16 L 246.25 429.12 C256.81,425.77 285.01,419.96 300.00,418.05 C304.67,417.45 310.16,416.71 312.18,416.41 L 315.86 415.85 L 316.29 425.17 C316.52,430.30 316.89,435.35 317.11,436.39 C317.46,438.07 316.30,438.49 306.85,440.10 C292.76,442.50 278.85,446.06 260.06,452.06 C251.57,454.78 244.26,457.00 243.81,457.00 C243.36,457.00 243.00,450.96 243.00,443.58 ZM 748.54 442.07 C748.21,441.52 747.03,435.58 745.94,428.87 C744.34,419.08 744.20,416.49 745.22,415.86 C746.52,415.05 768.40,409.65 775.25,408.44 C778.47,407.87 779.00,408.04 779.02,409.64 C779.03,410.66 779.69,416.40 780.49,422.39 C781.29,428.39 781.73,433.62 781.48,434.03 C781.23,434.44 779.44,435.07 777.50,435.43 C775.56,435.80 770.04,437.37 765.24,438.93 C754.51,442.41 749.35,443.38 748.54,442.07 ZM 242.43 412.25 C242.00,411.29 241.26,396.55 240.80,379.50 C239.66,338.14 238.68,218.00 239.48,218.00 C239.82,218.00 245.31,219.35 251.66,221.00 C263.81,224.15 275.53,224.87 285.00,223.04 C287.48,222.56 289.59,222.26 289.70,222.37 C290.47,223.13 303.66,265.49 306.47,276.25 C310.76,292.65 312.68,303.48 314.47,321.50 C316.10,337.90 317.58,390.68 316.59,397.27 L 315.91 401.81 L 309.70 402.48 C300.15,403.50 274.08,407.85 258.09,411.08 C250.17,412.69 243.58,414.00 243.45,414.00 C243.32,414.00 242.86,413.21 242.43,412.25 ZM 595.00 331.16 L 595.00 318.31 L 603.03 315.17 C620.68,308.26 658.02,299.34 673.56,298.32 L 682.70 297.72 L 683.38 305.61 C683.76,309.95 684.32,314.92 684.63,316.66 L 685.19 319.82 L 678.34 320.50 C661.66,322.16 646.65,326.18 616.34,337.10 C605.80,340.89 596.69,344.00 596.09,344.00 C595.36,344.00 595.00,339.75 595.00,331.16 ZM 597.38 292.99 C599.30,270.01 609.21,232.24 617.80,215.16 L 623.50 203.82 L 627.00 204.44 C637.49,206.27 651.89,208.08 662.50,208.89 C669.10,209.39 675.72,210.28 677.20,210.86 C683.67,213.39 685.41,223.91 683.96,251.77 C683.22,266.08 683.25,272.22 684.08,274.74 C684.94,277.35 684.91,279.23 683.97,282.60 C682.55,287.67 682.67,287.62 669.46,288.41 C658.61,289.06 636.15,292.83 615.08,297.55 C606.60,299.45 599.00,301.00 598.19,301.00 C596.95,301.00 596.82,299.69 597.38,292.99 ZM 606.00 746.41 C606.00,743.76 606.95,743.35 608.80,745.20 C610.50,746.90 610.30,747.69 608.00,748.29 C606.41,748.71 606.00,748.32 606.00,746.41 ZM 663.00 728.39 C663.00,726.79 663.47,725.99 664.25,726.25 C666.12,726.87 666.32,729.66 664.55,730.34 C663.40,730.78 663.00,730.28 663.00,728.39 ZM 251.56 765.78 C249.79,763.25 249.49,755.83 251.04,752.93 C252.61,749.99 257.39,750.36 258.84,753.55 C261.52,759.43 259.24,768.00 255.00,768.00 C253.96,768.00 252.41,767.00 251.56,765.78 ZM 274.00 752.00 C274.00,748.33 274.25,747.90 276.15,748.18 C279.14,748.63 280.81,751.49 279.39,753.75 C278.79,754.71 277.33,755.64 276.15,755.82 C274.25,756.10 274.00,755.67 274.00,752.00 ZM 158.52 761.02 C157.60,759.55 159.14,745.00 160.20,745.00 C160.71,745.00 162.00,745.47 163.07,746.04 C167.04,748.16 164.82,762.00 160.50,762.00 C159.74,762.00 158.85,761.56 158.52,761.02 ZM 515.24 755.84 C513.23,753.83 513.78,747.63 516.29,743.90 C520.56,737.56 525.57,739.29 524.72,746.82 C523.90,754.09 518.56,759.16 515.24,755.84 ZM 409.67 738.33 C409.30,737.97 409.00,734.14 409.00,729.83 C409.00,721.56 410.00,720.14 413.43,723.57 C415.74,725.88 415.57,735.18 413.17,737.35 C411.15,739.17 410.65,739.32 409.67,738.33 Z" fill="rgb(254,254,254)"/>
</g>
</svg>