<svg xmlns="http://www.w3.org/2000/svg" viewBox="0 0 1458 1017" width="1458" height="1017">
  <path d="M 246 1 L 249 14 L 259 31 L 280 50 L 304 64 L 304 368 L 299 371 L 264 380 L 253 385 L 250 389 L 250 402 L 254 406 L 260 406 L 293 392 L 306 389 L 307 435 L 276 451 L 255 457 L 257 463 L 257 473 L 253 483 L 270 477 L 300 461 L 306 459 L 307 460 L 308 500 L 313 562 L 313 666 L 310 696 L 310 712 L 331 711 L 336 706 L 333 670 L 334 594 L 327 448 L 353 439 L 374 429 L 395 423 L 419 420 L 444 421 L 443 478 L 438 549 L 431 610 L 415 711 L 413 716 L 409 720 L 404 722 L 351 729 L 322 736 L 295 747 L 268 763 L 255 769 L 240 773 L 216 776 L 189 786 L 145 810 L 112 831 L 91 848 L 63 875 L 34 900 L 1 917 L 27 931 L 37 934 L 51 943 L 51 1016 L 58 1015 L 64 1010 L 70 999 L 89 972 L 120 939 L 152 909 L 163 901 L 170 898 L 178 899 L 196 908 L 217 914 L 246 917 L 290 917 L 371 908 L 478 887 L 529 879 L 572 876 L 620 878 L 655 883 L 704 894 L 705 904 L 703 915 L 703 934 L 707 945 L 714 951 L 720 953 L 737 953 L 751 950 L 773 942 L 844 907 L 883 891 L 922 878 L 1007 858 L 1048 858 L 1082 854 L 1122 854 L 1164 857 L 1217 864 L 1264 873 L 1270 873 L 1271 866 L 1273 865 L 1312 894 L 1354 918 L 1414 946 L 1443 956 L 1456 958 L 1453 946 L 1436 927 L 1426 911 L 1421 898 L 1421 890 L 1424 884 L 1436 873 L 1455 862 L 1432 860 L 1414 856 L 1394 849 L 1371 837 L 1338 813 L 1322 798 L 1280 752 L 1264 739 L 1255 734 L 1240 731 L 1226 736 L 1221 741 L 1219 755 L 1209 752 L 1189 742 L 1199 701 L 1207 649 L 1239 482 L 1258 364 L 1278 210 L 1277 180 L 1266 132 L 1258 106 L 1249 83 L 1235 55 L 1223 37 L 1209 21 L 1204 10 L 1196 14 L 1182 29 L 1160 60 L 1144 78 L 1121 109 L 1101 131 L 1093 142 L 1089 151 L 1099 146 L 1115 131 L 1132 118 L 1146 112 L 1160 112 L 1172 118 L 1184 131 L 1199 156 L 1206 178 L 1208 196 L 1208 228 L 1198 314 L 1179 418 L 1171 446 L 1168 453 L 1165 456 L 1152 399 L 1144 334 L 1141 331 L 1134 331 L 1074 344 L 1069 343 L 1058 294 L 1052 245 L 1053 217 L 1062 191 L 1064 181 L 1058 187 L 1033 222 L 1015 238 L 1010 241 L 1008 238 L 1002 196 L 1002 149 L 1011 62 L 1012 31 L 991 32 L 966 36 L 934 36 L 906 30 L 891 25 L 868 12 L 862 10 L 858 11 L 848 21 L 837 37 L 825 60 L 811 94 L 797 136 L 786 178 L 777 231 L 770 319 L 770 403 L 773 456 L 779 514 L 790 580 L 806 649 L 826 711 L 838 739 L 849 759 L 871 789 L 874 790 L 893 776 L 908 768 L 925 761 L 949 754 L 972 751 L 1027 754 L 1027 745 L 1021 717 L 1011 630 L 1006 552 L 1007 485 L 1012 459 L 1022 438 L 1028 442 L 1025 450 L 1038 447 L 1055 439 L 1063 438 L 1065 440 L 1065 450 L 1073 498 L 1105 655 L 1119 736 L 1118 746 L 1107 747 L 1086 755 L 1101 762 L 1101 764 L 1027 770 L 976 777 L 933 785 L 887 797 L 853 808 L 820 821 L 794 834 L 781 822 L 762 812 L 734 803 L 711 798 L 677 793 L 585 785 L 574 785 L 558 788 L 550 787 L 552 782 L 561 775 L 569 773 L 580 773 L 580 767 L 575 767 L 566 764 L 557 759 L 556 756 L 559 749 L 563 728 L 572 632 L 577 609 L 581 602 L 604 602 L 629 605 L 650 614 L 660 621 L 661 660 L 666 710 L 666 733 L 669 754 L 667 756 L 658 758 L 650 762 L 642 768 L 636 776 L 672 776 L 688 783 L 699 784 L 709 781 L 718 776 L 730 773 L 768 773 L 764 768 L 758 764 L 735 754 L 734 693 L 728 603 L 723 552 L 722 505 L 711 398 L 711 383 L 692 116 L 689 95 L 689 13 L 680 15 L 662 14 L 654 10 L 644 1 L 642 7 L 636 13 L 631 16 L 620 19 L 602 19 L 581 13 L 585 22 L 594 31 L 607 38 L 622 42 L 623 49 L 555 586 L 552 594 L 538 605 L 523 623 L 516 636 L 514 650 L 532 629 L 550 616 L 553 616 L 550 646 L 537 723 L 535 761 L 518 772 L 494 782 L 538 781 L 541 783 L 541 788 L 511 789 L 471 793 L 413 803 L 355 817 L 328 821 L 298 822 L 297 792 L 294 777 L 295 776 L 348 769 L 386 769 L 429 778 L 440 779 L 463 743 L 472 723 L 481 697 L 491 658 L 504 593 L 511 541 L 517 452 L 517 347 L 515 307 L 507 230 L 502 201 L 494 168 L 481 124 L 466 82 L 449 47 L 435 27 L 421 13 L 415 10 L 410 14 L 392 23 L 367 31 L 348 34 L 315 33 L 300 30 L 283 24 L 264 14 L 253 6 L 250 2 Z M 166 809 L 168 815 L 170 888 L 116 932 L 99 949 L 73 982 L 59 996 L 58 985 L 60 940 L 48 931 L 31 922 L 28 919 L 54 891 L 107 845 L 144 820 Z M 788 840 L 780 907 L 769 905 L 724 891 L 656 876 L 599 868 L 551 867 L 510 872 L 437 889 L 377 900 L 298 909 L 256 910 L 235 908 L 215 904 L 186 894 L 178 889 L 175 810 L 180 810 L 216 822 L 244 828 L 263 830 L 304 831 L 352 826 L 462 804 L 516 796 L 560 793 L 613 794 L 685 802 L 731 811 L 748 816 L 771 826 L 780 832 Z M 1265 799 L 1266 830 L 1263 849 L 1263 861 L 1261 863 L 1149 847 L 1071 846 L 1026 849 L 975 857 L 925 870 L 838 901 L 793 922 L 787 922 L 797 842 L 807 835 L 830 824 L 885 806 L 926 796 L 972 787 L 1023 779 L 1060 775 L 1144 775 L 1214 780 L 1254 788 L 1258 790 Z M 1228 745 L 1233 742 L 1241 740 L 1247 740 L 1258 744 L 1264 748 L 1282 766 L 1297 784 L 1327 814 L 1348 831 L 1378 850 L 1429 868 L 1419 878 L 1414 886 L 1412 892 L 1412 900 L 1418 914 L 1435 941 L 1428 941 L 1408 935 L 1363 915 L 1320 889 L 1272 853 L 1271 833 L 1273 822 L 1273 797 L 1270 787 L 1264 778 L 1241 763 L 1233 755 Z M 855 456 L 902 462 L 940 463 L 951 713 L 953 724 L 952 734 L 944 740 L 914 746 L 911 745 L 887 677 L 876 631 L 863 559 L 855 493 Z M 1134 417 L 1138 438 L 1154 491 L 1157 511 L 1157 530 L 1130 658 L 1128 661 L 1123 624 L 1091 470 L 1085 427 L 1088 425 L 1098 424 L 1119 418 Z M 438 366 L 437 389 L 440 397 L 439 399 L 401 405 L 374 412 L 331 426 L 327 425 L 328 386 L 346 380 L 383 372 L 429 365 Z M 1124 353 L 1126 355 L 1130 392 L 1127 394 L 1118 395 L 1092 404 L 1080 405 L 1078 401 L 1073 366 L 1075 364 L 1088 360 Z M 1022 247 L 1029 256 L 1035 279 L 1043 319 L 1046 350 L 1032 357 L 1013 362 L 1016 380 L 1022 380 L 1047 372 L 1052 378 L 1058 417 L 1047 419 L 1026 426 L 1010 426 L 995 418 L 973 399 L 966 404 L 943 429 L 930 439 L 918 445 L 890 452 L 855 454 L 850 410 L 848 290 L 904 261 L 944 248 L 961 246 L 1008 248 L 1015 246 Z M 625 195 L 627 205 L 629 245 L 638 320 L 638 337 L 654 580 L 648 581 L 627 576 L 610 575 L 575 582 L 574 580 L 579 562 L 586 519 L 598 432 L 616 279 L 622 215 L 622 196 Z M 982 189 L 985 209 L 984 223 L 965 224 L 929 232 L 853 259 L 851 258 L 851 220 L 853 218 L 859 217 L 881 208 L 926 196 L 957 190 L 980 188 Z M 322 70 L 359 79 L 383 79 L 395 76 L 399 78 L 422 152 L 433 204 L 438 271 L 438 343 L 435 345 L 403 348 L 332 362 L 327 361 L 324 339 L 324 266 L 321 231 Z M 894 49 L 930 55 L 971 58 L 980 64 L 985 78 L 985 121 L 983 140 L 985 167 L 981 174 L 958 175 L 898 185 L 857 195 L 854 194 L 854 183 L 858 157 L 870 105 L 878 80 Z" fill="#930142" fill-rule="evenodd"/>
  <path d="M 250 865 L 250 876 L 255 876 L 258 872 L 258 869 L 256 866 Z M 344 863 L 339 868 L 339 882 L 341 886 L 346 889 L 349 888 L 352 884 L 353 874 L 351 866 L 347 863 Z M 374 860 L 375 871 L 381 870 L 382 862 L 380 860 Z M 204 855 L 202 879 L 207 879 L 212 871 L 212 861 L 209 856 Z M 869 853 L 868 860 L 874 859 Z M 744 848 L 737 849 L 733 855 L 731 868 L 734 872 L 740 872 L 746 863 L 747 851 Z M 476 848 L 475 856 L 481 855 L 481 853 Z M 429 848 L 425 854 L 426 864 L 428 869 L 432 873 L 436 873 L 440 869 L 439 855 L 436 849 Z M 543 830 L 541 838 L 548 837 L 545 831 Z M 954 826 L 953 834 L 959 832 Z M 927 826 L 929 836 L 931 836 L 933 834 L 933 829 L 930 826 Z M 575 821 L 575 845 L 579 845 L 582 843 L 584 838 L 584 828 L 579 821 Z M 1226 819 L 1220 826 L 1227 828 Z M 166 810 L 144 821 L 107 846 L 54 892 L 29 919 L 31 921 L 48 930 L 61 940 L 59 995 L 72 982 L 98 949 L 116 931 L 139 911 L 169 888 Z M 989 809 L 986 810 L 988 820 L 994 817 L 993 811 Z M 1119 806 L 1116 814 L 1122 814 Z M 787 840 L 780 833 L 771 827 L 756 820 L 731 812 L 685 803 L 613 795 L 560 794 L 516 797 L 462 805 L 352 827 L 304 832 L 263 831 L 238 828 L 216 823 L 176 810 L 179 889 L 196 897 L 215 903 L 235 907 L 256 909 L 298 908 L 377 899 L 437 888 L 510 871 L 551 866 L 599 867 L 656 875 L 708 886 L 769 904 L 780 906 Z M 275 866 L 296 867 L 295 876 L 292 870 L 283 868 L 283 879 L 285 879 L 289 873 L 290 881 L 288 888 L 285 882 L 283 882 L 282 891 L 284 893 L 289 893 L 293 891 L 296 886 L 297 891 L 295 896 L 271 894 L 274 893 L 275 890 Z M 302 864 L 327 865 L 326 871 L 323 867 L 318 866 L 318 889 L 322 892 L 321 893 L 309 892 L 311 889 L 310 867 L 304 868 L 302 873 Z M 239 863 L 253 862 L 260 863 L 263 865 L 266 871 L 265 874 L 260 878 L 260 880 L 268 891 L 260 892 L 250 879 L 249 888 L 253 891 L 242 892 L 240 890 L 242 888 L 242 864 Z M 338 862 L 351 861 L 359 867 L 361 871 L 361 880 L 360 883 L 354 889 L 350 891 L 341 891 L 332 884 L 330 879 L 330 873 L 332 868 Z M 223 859 L 237 861 L 233 864 L 231 885 L 233 888 L 232 889 L 220 888 L 224 885 L 225 862 L 222 860 Z M 363 859 L 371 857 L 385 857 L 390 862 L 390 868 L 385 872 L 396 884 L 387 885 L 376 874 L 376 883 L 380 885 L 376 887 L 367 887 L 366 886 L 369 884 L 367 861 Z M 397 853 L 409 853 L 408 860 L 411 877 L 413 879 L 412 881 L 402 881 L 404 879 L 400 856 L 397 855 Z M 195 852 L 210 853 L 218 858 L 221 869 L 219 875 L 214 880 L 209 882 L 190 880 L 194 878 L 196 854 L 194 853 Z M 349 851 L 349 854 L 343 859 L 343 853 L 345 851 Z M 734 845 L 743 845 L 749 848 L 754 854 L 754 865 L 752 869 L 745 875 L 740 876 L 732 874 L 726 869 L 724 865 L 724 855 L 726 851 Z M 430 845 L 437 845 L 441 847 L 447 853 L 448 856 L 448 865 L 446 869 L 442 873 L 434 876 L 425 874 L 419 868 L 417 863 L 417 857 L 420 851 L 423 848 Z M 701 837 L 711 836 L 718 840 L 722 840 L 720 849 L 718 847 L 718 844 L 712 839 L 706 840 L 701 846 L 700 859 L 702 862 L 706 864 L 711 864 L 716 861 L 717 863 L 713 866 L 702 866 L 697 863 L 692 856 L 692 847 L 694 843 Z M 477 836 L 493 858 L 498 861 L 495 863 L 487 864 L 486 860 L 483 857 L 474 859 L 473 863 L 477 866 L 469 868 L 468 867 L 471 863 L 475 840 Z M 676 828 L 688 831 L 684 834 L 679 856 L 682 858 L 681 859 L 669 856 L 672 854 L 677 832 L 675 829 Z M 522 824 L 524 833 L 523 834 L 518 829 L 512 829 L 507 833 L 506 841 L 508 848 L 513 853 L 520 853 L 526 847 L 527 850 L 522 855 L 516 857 L 510 857 L 505 855 L 500 850 L 498 845 L 498 839 L 500 834 L 508 827 L 520 827 Z M 631 822 L 637 822 L 641 825 L 645 842 L 656 825 L 666 827 L 663 829 L 660 855 L 648 853 L 652 851 L 655 830 L 641 853 L 634 828 L 631 843 L 631 848 L 633 850 L 625 850 L 628 848 Z M 598 819 L 614 820 L 621 822 L 619 830 L 614 823 L 607 824 L 607 833 L 609 833 L 613 827 L 614 831 L 613 841 L 612 842 L 610 838 L 606 836 L 605 846 L 613 847 L 617 845 L 619 842 L 620 846 L 618 850 L 600 849 L 593 847 L 597 846 L 600 824 L 600 822 L 597 820 Z M 563 819 L 580 818 L 586 820 L 591 825 L 593 832 L 590 842 L 583 847 L 564 848 L 563 847 L 567 845 L 567 821 Z M 545 818 L 559 841 L 564 845 L 563 846 L 551 847 L 550 846 L 552 845 L 552 843 L 549 839 L 540 841 L 539 846 L 542 848 L 541 849 L 533 848 L 536 846 Z M 603 817 L 607 811 L 611 809 L 615 812 L 617 818 L 615 819 L 611 814 L 605 818 Z M 1264 799 L 1262 795 L 1254 789 L 1214 781 L 1144 776 L 1060 776 L 1023 780 L 972 788 L 926 797 L 885 807 L 830 825 L 807 836 L 798 842 L 788 922 L 803 917 L 838 900 L 909 874 L 966 858 L 1010 850 L 1071 845 L 1149 846 L 1261 862 L 1265 830 Z M 848 850 L 850 859 L 849 860 L 844 855 L 835 856 L 833 859 L 833 869 L 838 877 L 843 878 L 846 877 L 846 872 L 842 868 L 852 866 L 854 875 L 848 879 L 841 881 L 832 879 L 825 870 L 825 864 L 827 859 L 834 853 L 846 853 Z M 868 843 L 870 842 L 883 859 L 890 864 L 880 867 L 876 861 L 873 861 L 868 863 L 867 867 L 871 869 L 863 872 L 862 871 L 865 866 Z M 905 831 L 907 833 L 908 838 L 907 839 L 902 835 L 898 835 L 896 837 L 896 840 L 899 842 L 909 844 L 913 848 L 914 852 L 909 859 L 900 860 L 898 862 L 895 856 L 896 853 L 902 858 L 908 857 L 909 853 L 905 850 L 895 848 L 891 843 L 891 839 L 895 834 L 904 833 Z M 935 823 L 940 827 L 940 833 L 930 840 L 932 847 L 936 849 L 926 852 L 920 828 L 916 827 L 929 823 Z M 954 815 L 968 833 L 974 838 L 963 841 L 962 840 L 964 839 L 960 834 L 952 837 L 952 841 L 955 843 L 954 844 L 947 844 L 949 842 L 952 819 Z M 1231 810 L 1233 812 L 1235 838 L 1237 841 L 1236 842 L 1224 838 L 1227 837 L 1226 830 L 1218 828 L 1215 831 L 1215 835 L 1209 833 Z M 975 810 L 986 807 L 997 807 L 1001 812 L 1001 816 L 997 821 L 1005 829 L 1008 830 L 1000 833 L 989 822 L 989 830 L 993 833 L 981 836 L 980 835 L 982 834 L 982 827 L 979 812 Z M 1181 799 L 1190 800 L 1201 819 L 1203 806 L 1200 803 L 1202 802 L 1208 804 L 1205 808 L 1202 829 L 1200 833 L 1185 807 L 1182 823 L 1183 827 L 1185 828 L 1181 829 L 1175 827 L 1180 824 L 1183 808 L 1183 802 L 1180 800 Z M 1077 799 L 1078 801 L 1075 804 L 1069 827 L 1066 831 L 1055 812 L 1048 804 L 1060 802 L 1061 803 L 1059 805 L 1068 820 L 1072 808 L 1072 803 L 1069 801 Z M 1087 797 L 1101 798 L 1098 799 L 1098 824 L 1100 824 L 1100 826 L 1086 825 L 1090 823 L 1090 800 L 1087 799 Z M 1142 795 L 1152 796 L 1164 814 L 1165 800 L 1162 798 L 1171 798 L 1168 800 L 1167 803 L 1167 816 L 1165 827 L 1148 803 L 1146 821 L 1150 824 L 1140 824 L 1144 821 L 1145 799 L 1141 796 Z M 1122 795 L 1134 822 L 1137 824 L 1124 825 L 1123 824 L 1126 822 L 1124 817 L 1114 817 L 1113 823 L 1116 824 L 1107 825 L 1106 824 L 1111 819 L 1119 799 Z M 1229 745 L 1234 755 L 1245 765 L 1264 777 L 1271 787 L 1274 797 L 1272 852 L 1320 888 L 1363 914 L 1400 931 L 1434 941 L 1417 914 L 1411 900 L 1411 892 L 1414 884 L 1428 868 L 1378 851 L 1348 832 L 1327 815 L 1296 784 L 1281 766 L 1264 749 L 1258 745 L 1247 741 L 1236 742 Z" fill="#fcfcfc" fill-rule="evenodd"/>
  <path d="M 273 866 L 276 868 L 276 890 L 275 893 L 272 894 L 295 895 L 296 887 L 295 890 L 289 894 L 284 894 L 281 891 L 282 882 L 285 881 L 288 884 L 288 887 L 288 882 L 289 881 L 289 874 L 288 877 L 285 880 L 282 879 L 282 868 L 284 867 L 292 869 L 294 871 L 295 875 L 295 867 L 275 867 Z M 302 865 L 302 872 L 304 867 L 306 866 L 311 867 L 312 889 L 310 892 L 321 892 L 319 892 L 317 889 L 317 866 L 321 865 L 326 870 L 326 865 Z M 240 863 L 243 864 L 243 888 L 241 890 L 242 891 L 252 891 L 250 891 L 248 888 L 249 879 L 251 878 L 260 891 L 267 891 L 259 880 L 259 878 L 264 874 L 265 871 L 263 866 L 260 864 L 254 864 L 253 863 Z M 250 864 L 256 865 L 259 869 L 259 872 L 255 877 L 250 877 L 249 876 L 249 865 Z M 338 863 L 333 868 L 331 873 L 331 879 L 333 884 L 341 890 L 350 890 L 354 888 L 359 883 L 360 880 L 360 871 L 358 867 L 351 862 Z M 344 862 L 347 862 L 352 866 L 354 874 L 353 884 L 349 889 L 346 890 L 343 889 L 338 882 L 338 868 Z M 223 860 L 226 862 L 226 875 L 225 876 L 225 885 L 221 888 L 232 888 L 234 889 L 230 885 L 231 884 L 232 864 L 234 861 L 236 861 Z M 364 859 L 366 859 L 368 861 L 370 884 L 367 886 L 379 885 L 377 885 L 375 883 L 375 874 L 376 873 L 387 884 L 395 884 L 391 881 L 384 872 L 389 868 L 388 860 L 385 858 Z M 374 859 L 380 859 L 383 862 L 383 869 L 379 872 L 374 871 L 374 862 L 373 861 Z M 195 853 L 197 854 L 196 872 L 195 873 L 195 878 L 193 880 L 191 880 L 209 881 L 214 879 L 218 875 L 220 869 L 219 862 L 217 858 L 210 854 Z M 204 854 L 209 855 L 213 861 L 213 871 L 211 876 L 207 880 L 202 880 L 201 879 L 202 860 Z M 410 852 L 397 854 L 399 854 L 401 856 L 404 877 L 405 878 L 403 881 L 412 880 L 410 877 L 408 861 L 407 860 L 407 854 Z M 349 852 L 345 852 L 343 858 Z M 848 851 L 846 854 L 844 853 L 834 854 L 828 859 L 826 864 L 826 870 L 832 878 L 841 880 L 848 878 L 853 875 L 851 869 L 854 866 L 843 868 L 847 872 L 847 877 L 843 879 L 838 878 L 834 874 L 832 869 L 832 859 L 833 857 L 837 854 L 844 854 L 849 859 Z M 734 846 L 730 848 L 725 855 L 725 865 L 727 869 L 732 873 L 740 875 L 745 874 L 751 869 L 754 862 L 753 854 L 749 849 L 743 846 Z M 744 847 L 748 851 L 747 863 L 744 869 L 740 873 L 734 873 L 730 868 L 730 862 L 732 855 L 737 848 Z M 430 846 L 421 851 L 418 857 L 418 863 L 420 868 L 425 873 L 430 875 L 434 875 L 442 872 L 445 869 L 447 865 L 447 856 L 446 853 L 441 848 L 437 846 Z M 429 847 L 436 848 L 440 855 L 441 869 L 436 874 L 432 874 L 427 869 L 425 864 L 424 854 L 425 851 Z M 869 843 L 866 866 L 863 871 L 870 869 L 868 869 L 866 867 L 866 865 L 868 862 L 873 860 L 876 860 L 880 864 L 880 866 L 878 867 L 889 864 L 887 864 Z M 868 853 L 870 852 L 875 859 L 871 861 L 868 861 L 867 860 Z M 704 837 L 699 839 L 695 843 L 693 847 L 693 856 L 695 860 L 700 864 L 709 866 L 715 864 L 716 862 L 711 865 L 706 865 L 702 863 L 699 859 L 700 846 L 706 839 L 712 838 L 719 844 L 720 848 L 721 840 L 718 841 L 711 837 Z M 477 837 L 472 863 L 469 867 L 476 866 L 474 866 L 472 863 L 473 859 L 476 857 L 483 856 L 487 860 L 487 863 L 485 864 L 497 861 L 495 861 L 492 858 Z M 476 847 L 482 853 L 481 856 L 477 857 L 474 856 Z M 905 832 L 904 834 L 895 835 L 892 839 L 892 843 L 895 847 L 905 849 L 910 853 L 909 857 L 906 859 L 900 858 L 895 853 L 898 861 L 900 859 L 909 858 L 912 855 L 913 852 L 912 848 L 909 845 L 899 843 L 895 840 L 895 837 L 898 834 L 902 834 L 908 839 Z M 676 829 L 678 831 L 677 837 L 675 842 L 673 854 L 670 856 L 681 858 L 678 856 L 683 834 L 685 831 L 687 831 Z M 522 825 L 520 828 L 518 827 L 508 828 L 501 834 L 499 839 L 499 845 L 501 850 L 505 854 L 510 856 L 516 856 L 522 854 L 526 850 L 526 848 L 520 854 L 513 854 L 507 848 L 505 841 L 506 833 L 512 828 L 518 828 L 523 833 Z M 935 824 L 929 824 L 917 827 L 921 828 L 926 845 L 926 851 L 935 849 L 933 849 L 931 847 L 931 844 L 929 840 L 930 838 L 936 836 L 939 833 L 939 827 Z M 927 825 L 930 825 L 934 829 L 934 834 L 931 837 L 928 836 L 926 828 Z M 631 823 L 632 824 L 632 831 L 631 832 L 630 845 L 629 848 L 626 850 L 632 850 L 633 851 L 630 848 L 630 843 L 631 842 L 632 829 L 634 827 L 636 831 L 641 852 L 655 829 L 656 833 L 655 834 L 653 851 L 651 853 L 649 853 L 660 854 L 659 853 L 659 847 L 660 846 L 662 829 L 665 827 L 656 826 L 645 843 L 640 825 L 637 823 Z M 598 820 L 601 822 L 599 843 L 597 847 L 594 847 L 618 849 L 620 842 L 617 846 L 613 848 L 605 847 L 604 843 L 606 835 L 608 835 L 611 838 L 612 841 L 613 828 L 612 831 L 609 834 L 607 834 L 606 833 L 606 824 L 608 822 L 614 822 L 618 826 L 619 829 L 620 822 Z M 564 819 L 566 819 L 568 821 L 568 845 L 566 847 L 564 847 L 578 847 L 587 844 L 589 842 L 592 834 L 590 825 L 586 821 L 580 819 Z M 575 820 L 579 820 L 584 825 L 585 828 L 585 838 L 583 843 L 579 846 L 574 845 L 574 821 Z M 545 819 L 537 846 L 534 848 L 541 848 L 538 846 L 539 841 L 541 839 L 548 839 L 549 838 L 553 843 L 553 845 L 551 846 L 563 845 L 558 841 Z M 543 829 L 546 831 L 549 836 L 548 838 L 543 839 L 540 838 Z M 954 816 L 950 842 L 948 844 L 954 843 L 951 841 L 951 837 L 953 835 L 960 833 L 965 839 L 962 841 L 966 839 L 973 838 L 967 833 Z M 953 826 L 954 825 L 960 832 L 953 835 L 952 834 Z M 1232 812 L 1231 811 L 1216 828 L 1210 833 L 1217 835 L 1214 833 L 1214 831 L 1218 827 L 1226 829 L 1228 831 L 1228 837 L 1225 838 L 1236 841 L 1234 838 L 1234 832 L 1233 831 Z M 1226 818 L 1228 828 L 1227 829 L 1222 828 L 1219 826 Z M 604 817 L 611 813 L 616 818 L 614 812 L 611 810 L 609 810 Z M 976 810 L 978 810 L 981 815 L 981 820 L 983 827 L 983 834 L 981 835 L 992 833 L 990 833 L 988 830 L 987 823 L 989 821 L 1000 832 L 1007 830 L 1005 830 L 996 821 L 1000 816 L 1000 812 L 997 808 L 986 808 Z M 989 808 L 992 809 L 995 814 L 995 817 L 990 821 L 988 821 L 986 819 L 986 814 L 985 813 L 985 810 Z M 1181 800 L 1184 802 L 1181 824 L 1178 827 L 1176 827 L 1184 828 L 1182 827 L 1181 823 L 1185 806 L 1188 809 L 1200 832 L 1204 808 L 1207 804 L 1201 803 L 1204 806 L 1201 820 L 1198 817 L 1190 801 Z M 1077 800 L 1076 801 L 1070 801 L 1073 803 L 1073 808 L 1068 821 L 1058 805 L 1060 803 L 1049 804 L 1052 806 L 1066 830 L 1067 830 L 1074 804 Z M 1087 798 L 1089 798 L 1091 800 L 1091 823 L 1089 825 L 1087 825 L 1100 825 L 1097 824 L 1097 799 L 1100 798 Z M 1142 796 L 1146 799 L 1146 809 L 1145 810 L 1145 821 L 1141 824 L 1149 824 L 1147 824 L 1145 821 L 1146 803 L 1148 802 L 1165 826 L 1166 803 L 1167 800 L 1170 798 L 1163 798 L 1166 800 L 1166 808 L 1164 815 L 1152 797 Z M 1122 796 L 1112 819 L 1107 824 L 1115 824 L 1112 823 L 1112 819 L 1114 816 L 1124 816 L 1127 822 L 1124 824 L 1136 824 L 1133 822 Z M 1119 805 L 1123 812 L 1122 815 L 1116 815 L 1115 814 L 1115 812 Z" fill="#373435" fill-rule="evenodd"/>
</svg>